<?xml version="1.0" encoding="UTF-8" standalone="no"?>
<svg
   xmlns:dc="http://purl.org/dc/elements/1.1/"
   xmlns:cc="http://creativecommons.org/ns#"
   xmlns:rdf="http://www.w3.org/1999/02/22-rdf-syntax-ns#"
   xmlns:svg="http://www.w3.org/2000/svg"
   xmlns="http://www.w3.org/2000/svg"
   xmlns:sodipodi="http://sodipodi.sourceforge.net/DTD/sodipodi-0.dtd"
   xmlns:inkscape="http://www.inkscape.org/namespaces/inkscape"
   version="1.1"
   x="0px"
   y="0px"
   viewBox="0 0 150 150"
   style="enable-background:new 0 0 150 150;"
   xml:space="preserve"
   id="svg156"
   sodipodi:docname="favicon.svg"
   inkscape:version="1.0.2 (e86c870879, 2021-01-15, custom)"><g
   id="lico"
   transform="translate(-190.15193,-376.09813)"><ellipse
     class="st8"
     cx="265.52283"
     cy="452.44351"
     rx="36.5"
     ry="35"
     id="ellipse108"
     inkscape:transform-center-x="-160.8814"
     inkscape:transform-center-y="17.424201" /></g><g
   id="Слой_6"
   transform="translate(-413.03634,-419.42261)"><path
     class="st10"
     d="m 509.47,467.4 c -0.81,0.36 -0.39,1.89 -0.95,5.92 -0.68,4.91 -2.16,8.77 -3.33,11.32 -6.42,3.23 -8.56,5.38 -12.85,6.46 -2.92,-2.08 2,-8.99 -1.07,-18.31 -0.46,-1.4 -3.09,-10.25 -8.56,-10.77 -16.55,-1.58 -36.4,28.82 -25.69,29.08 1.95,0.05 4.28,4.31 12.85,-3.23 5.35,2.15 6.42,7.54 8.56,9.69 3.21,8.62 9.06,-2.05 9.63,-1.08 0.65,1.09 -4.28,11.85 -11.77,10.77 -9.63,3.23 -12.35,6.63 -13.92,8.62 -6.35,8.03 29.32,20.11 34.25,15.08 0,-5.38 -7.49,-2.15 -5.35,-17.23 -0.16,-2.21 -0.59,-8.33 2.14,-9.69 2.64,-1.32 5.45,3.2 12.85,5.38 4.41,1.3 8.09,-2.13 12.85,0 0.92,0.41 1.29,0.73 1.9,0.6 3.08,-0.65 4.25,-11.03 3,-19 -2.16,-13.68 -12.11,-24.67 -14.54,-23.61 z"
     id="path121" /><g
     id="g125"><path
       class="st11"
       d="m 505.56,452.08 c 3.85,1.03 7.59,2.5 11.25,4.29 1.81,0.93 3.6,1.93 5.34,3.03 1.71,1.14 3.39,2.37 5.01,3.69 1.6,1.33 3.34,2.59 4.93,4.02 1.6,1.43 2.87,3.15 3.75,5.1 0.89,1.94 1.49,4.02 1.78,6.19 0.11,1.1 0.2,2.19 0.14,3.33 -0.08,1.15 -0.22,2.3 -0.57,3.5 l -1.01,0.42 c -1.14,-0.56 -2.06,-1.18 -2.94,-1.8 -0.88,-0.62 -1.71,-1.23 -2.45,-1.86 -1.53,-1.25 -2.86,-2.52 -4.1,-3.82 -0.58,-0.67 -1.19,-1.32 -1.68,-2.04 -0.48,-0.73 -0.96,-1.47 -1.37,-2.27 -0.82,-1.59 -1.65,-3.24 -2.75,-4.68 -1.07,-1.46 -2.23,-2.88 -3.46,-4.25 -1.19,-1.42 -2.47,-2.78 -3.81,-4.11 -2.64,-2.71 -5.56,-5.22 -8.58,-7.76 z"
       id="path123" /></g><g
     id="g129"><path
       class="st10"
       d="m 519.34,441.76 c -5.06,-1.91 -10.14,-3.46 -15.25,-4.29 -1.27,-0.22 -2.56,-0.36 -3.82,-0.54 -1.27,-0.12 -2.55,-0.17 -3.81,-0.27 l -3.77,-0.07 c -1.26,0.08 -2.5,0.12 -3.74,0.21 -1.24,0.16 -2.47,0.32 -3.68,0.58 -1.21,0.32 -2.41,0.58 -3.59,0.94 -1.18,0.38 -2.36,0.62 -3.55,0.9 -1.18,0.31 -2.4,0.43 -3.62,0.64 l -1.85,0.26 c -0.63,0.07 -1.26,0.13 -1.88,0.23 -1.26,0.19 -2.56,0.29 -3.88,0.43 -1.31,0.16 -2.68,0.24 -4.08,0.31 -1.4,0.09 -2.84,0.15 -4.41,0.04 l -0.51,-0.96 c 0.83,-1.32 1.79,-2.47 2.79,-3.58 1.03,-1.07 2.15,-2.01 3.29,-2.94 1.15,-0.91 2.41,-1.65 3.66,-2.41 1.26,-0.75 2.62,-1.3 3.96,-1.89 1.35,-0.57 2.79,-0.92 4.21,-1.26 1.43,-0.32 2.92,-0.39 4.39,-0.47 1.48,-0.04 2.96,0.07 4.43,0.12 1.47,0.09 2.93,0.27 4.37,0.33 1.45,0.16 2.89,0.36 4.32,0.55 1.42,0.29 2.83,0.56 4.23,0.87 1.38,0.41 2.76,0.79 4.11,1.24 1.34,0.51 2.68,0.96 3.98,1.51 5.19,2.25 9.98,5.13 14.24,8.57 z"
       id="path127" /></g><g
     id="g133"><path
       class="st10"
       d="m 540.72,510.09 c -1.16,3.82 -2.76,7.5 -4.68,11.1 -0.99,1.77 -2.06,3.53 -3.22,5.23 -1.2,1.67 -2.48,3.31 -3.86,4.88 -1.39,1.55 -2.7,3.25 -4.19,4.78 -1.48,1.55 -3.25,2.76 -5.23,3.57 -1.97,0.82 -4.07,1.35 -6.25,1.56 -1.1,0.08 -2.2,0.13 -3.33,0.03 -1.14,-0.12 -2.29,-0.3 -3.48,-0.69 l -0.39,-1.02 c 0.6,-1.12 1.25,-2.02 1.9,-2.87 0.65,-0.85 1.29,-1.66 1.95,-2.39 1.3,-1.48 2.62,-2.77 3.96,-3.96 0.69,-0.56 1.36,-1.14 2.1,-1.61 0.75,-0.46 1.5,-0.91 2.31,-1.29 1.62,-0.76 3.3,-1.54 4.78,-2.58 1.5,-1.02 2.95,-2.13 4.37,-3.31 1.46,-1.14 2.87,-2.37 4.24,-3.66 2.8,-2.54 5.41,-5.38 8.05,-8.31 z"
       id="path131" /></g><g
     id="g137"><path
       class="st11"
       d="m 471.72,542.86 c -3.85,-1.03 -7.59,-2.5 -11.25,-4.29 -1.81,-0.93 -3.6,-1.93 -5.34,-3.03 -1.71,-1.14 -3.39,-2.37 -5.01,-3.69 -1.6,-1.33 -3.34,-2.59 -4.93,-4.02 -1.6,-1.43 -2.87,-3.15 -3.75,-5.1 -0.89,-1.94 -1.49,-4.02 -1.78,-6.19 -0.11,-1.1 -0.2,-2.19 -0.14,-3.33 0.08,-1.15 0.22,-2.3 0.57,-3.5 l 1.01,-0.42 c 1.14,0.56 2.06,1.18 2.94,1.8 0.88,0.62 1.71,1.23 2.45,1.86 1.53,1.25 2.86,2.52 4.1,3.82 0.58,0.67 1.19,1.32 1.68,2.04 0.48,0.73 0.96,1.47 1.37,2.27 0.82,1.59 1.65,3.24 2.75,4.68 1.07,1.46 2.23,2.88 3.46,4.25 1.19,1.42 2.47,2.78 3.81,4.11 2.64,2.71 5.56,5.22 8.58,7.76 z"
       id="path135" /></g><g
     id="g141"><path
       class="st10"
       d="m 441.64,486.67 c -0.15,-3.99 0.15,-7.99 0.79,-12.02 0.36,-2 0.79,-4 1.33,-6 0.59,-1.97 1.26,-3.94 2.05,-5.87 0.8,-1.92 1.49,-3.95 2.4,-5.89 0.89,-1.95 2.17,-3.67 3.77,-5.08 1.59,-1.42 3.41,-2.61 5.39,-3.52 1.02,-0.43 2.04,-0.84 3.14,-1.11 1.12,-0.26 2.26,-0.46 3.51,-0.49 l 0.7,0.84 c -0.2,1.25 -0.52,2.32 -0.86,3.34 -0.33,1.02 -0.67,1.99 -1.06,2.89 -0.75,1.83 -1.57,3.48 -2.45,5.04 -0.47,0.76 -0.91,1.52 -1.46,2.21 -0.56,0.68 -1.12,1.35 -1.77,1.97 -1.28,1.25 -2.62,2.53 -3.67,4 -1.08,1.45 -2.09,2.98 -3.05,4.56 -1,1.56 -1.93,3.18 -2.81,4.85 -1.82,3.32 -3.36,6.85 -4.89,10.48 z"
       id="path139" /></g><g
     id="g145"><path
       class="st11"
       d="m 544.62,531.46 c 2.16,-4.94 3.94,-9.95 5.01,-15.05 0.28,-1.27 0.47,-2.55 0.71,-3.81 0.18,-1.27 0.29,-2.56 0.44,-3.82 l 0.23,-3.8 c -0.02,-1.27 -0.02,-2.53 -0.06,-3.78 -0.12,-1.26 -0.2,-2.51 -0.41,-3.75 -0.26,-1.24 -0.45,-2.46 -0.76,-3.67 l -0.42,-1.82 c -0.13,-0.61 -0.21,-1.21 -0.36,-1.82 -0.28,-1.21 -0.39,-2.44 -0.59,-3.68 l -0.26,-1.87 c -0.07,-0.63 -0.13,-1.27 -0.24,-1.9 -0.2,-1.26 -0.31,-2.56 -0.47,-3.88 -0.18,-1.31 -0.29,-2.65 -0.4,-4.04 -0.11,-1.38 -0.25,-2.77 -0.19,-4.3 l 0.83,-0.42 c 1.2,0.91 2.21,1.95 3.24,3 0.97,1.08 1.81,2.24 2.65,3.42 0.82,1.19 1.48,2.47 2.16,3.74 0.67,1.28 1.15,2.64 1.68,3.99 0.51,1.36 0.8,2.78 1.1,4.2 0.29,1.42 0.3,2.9 0.39,4.34 0.01,1.46 -0.11,2.92 -0.15,4.36 l -0.38,4.31 c -0.18,1.43 -0.4,2.85 -0.6,4.26 -0.31,1.4 -0.59,2.8 -0.92,4.18 -0.43,1.36 -0.82,2.72 -1.28,4.06 -0.52,1.32 -0.99,2.64 -1.54,3.93 -2.28,5.12 -5.19,9.86 -8.63,14.09 z"
       id="path143" /></g><g
     id="g149"><path
       class="st10"
       d="m 462.08,548.89 c 5.16,1.6 10.33,2.84 15.48,3.36 1.28,0.15 2.57,0.2 3.84,0.31 1.28,0.05 2.56,0.02 3.82,0.04 l 3.77,-0.16 c 1.25,-0.15 2.49,-0.27 3.72,-0.44 1.23,-0.23 2.44,-0.47 3.64,-0.8 1.19,-0.4 2.37,-0.73 3.53,-1.16 1.15,-0.45 2.32,-0.76 3.49,-1.12 1.16,-0.38 2.37,-0.58 3.57,-0.86 l 1.83,-0.38 c 0.62,-0.1 1.25,-0.2 1.87,-0.34 1.24,-0.27 2.54,-0.45 3.85,-0.66 1.3,-0.24 2.66,-0.4 4.06,-0.56 1.39,-0.18 2.82,-0.32 4.4,-0.3 l 0.57,0.93 c -0.75,1.37 -1.64,2.57 -2.57,3.74 -0.96,1.13 -2.02,2.14 -3.11,3.13 -1.1,0.98 -2.3,1.79 -3.51,2.63 -1.21,0.82 -2.53,1.45 -3.84,2.13 -1.32,0.65 -2.73,1.09 -4.13,1.51 -1.41,0.4 -2.9,0.57 -4.35,0.74 -1.47,0.13 -2.96,0.11 -4.43,0.15 -1.47,0 -2.94,-0.09 -4.39,-0.07 -1.45,-0.07 -2.9,-0.19 -4.34,-0.29 -1.43,-0.2 -2.86,-0.38 -4.28,-0.61 -1.4,-0.33 -2.8,-0.62 -4.18,-0.99 -1.36,-0.42 -2.73,-0.8 -4.06,-1.27 -5.32,-1.93 -10.27,-4.52 -14.73,-7.69 z"
       id="path147" /></g><g
     id="g153"><path
       class="st11"
       d="m 428.43,461.69 c -1.56,5.17 -2.76,10.35 -3.24,15.51 -0.14,1.28 -0.18,2.57 -0.28,3.85 -0.04,1.28 0,2.56 -0.01,3.82 l 0.18,3.77 c 0.16,1.25 0.29,2.49 0.47,3.71 0.24,1.22 0.49,2.44 0.83,3.63 0.41,1.18 0.75,2.36 1.18,3.52 0.46,1.15 0.78,2.32 1.14,3.48 0.39,1.16 0.6,2.36 0.89,3.56 l 0.39,1.83 c 0.11,0.62 0.21,1.25 0.36,1.86 0.28,1.24 0.46,2.53 0.69,3.84 0.25,1.3 0.42,2.65 0.59,4.05 0.19,1.39 0.34,2.82 0.34,4.4 l -0.92,0.58 c -1.37,-0.74 -2.58,-1.62 -3.76,-2.54 -1.14,-0.95 -2.15,-2.01 -3.16,-3.09 -0.99,-1.09 -1.81,-2.29 -2.65,-3.49 -0.83,-1.21 -1.47,-2.52 -2.16,-3.82 -0.66,-1.31 -1.11,-2.72 -1.54,-4.12 -0.41,-1.41 -0.59,-2.89 -0.77,-4.35 -0.14,-1.47 -0.13,-2.96 -0.19,-4.42 -0.01,-1.47 0.06,-2.94 0.03,-4.39 0.06,-1.45 0.17,-2.9 0.25,-4.34 0.19,-1.44 0.36,-2.87 0.58,-4.28 0.32,-1.41 0.6,-2.81 0.96,-4.19 0.41,-1.37 0.78,-2.74 1.23,-4.07 1.89,-5.33 4.43,-10.3 7.58,-14.79 z"
       id="path151" /></g></g><metadata
   id="metadata162"><rdf:RDF><cc:Work
       rdf:about=""><dc:format>image/svg+xml</dc:format><dc:type
         rdf:resource="http://purl.org/dc/dcmitype/StillImage" /></cc:Work></rdf:RDF></metadata><defs
   id="defs160" /><sodipodi:namedview
   pagecolor="#ffffff"
   bordercolor="#666666"
   borderopacity="1"
   objecttolerance="10"
   gridtolerance="10"
   guidetolerance="10"
   inkscape:pageopacity="0"
   inkscape:pageshadow="2"
   inkscape:window-width="1362"
   inkscape:window-height="730"
   id="namedview158"
   showgrid="false"
   inkscape:zoom="2.1807497"
   inkscape:cx="136.51562"
   inkscape:cy="63.554171"
   inkscape:window-x="0"
   inkscape:window-y="0"
   inkscape:window-maximized="1"
   inkscape:current-layer="svg156"
   inkscape:document-rotation="0" />
<style
   type="text/css"
   id="style2">
	.st0{fill:#FFFFFF00;}
	.st1{fill:#FFFFFF;stroke:#000000;stroke-width:3;stroke-miterlimit:10;}
	.st2{stroke:#000000;stroke-miterlimit:10;}
	.st3{fill:none;stroke:#000000;stroke-miterlimit:10;}
	.st4{stroke:#000000;stroke-width:0.25;stroke-miterlimit:10;}
	.st5{fill:#662D91;stroke:#662D91;stroke-miterlimit:10;}
	.st6{fill:#FFFFFF;}
	.st7{fill:none;}
	.st8{fill:#FF5FEF;stroke:#410074;stroke-width:3;stroke-miterlimit:10;}
	.st9{fill:none;stroke:#662D91;stroke-width:3;stroke-miterlimit:10;}
	.st10{fill:#410074;}
	.st11{fill:#FF5FEF;}
</style>






</svg>
