<?xml version="1.0" encoding="utf-8"?>
<!-- Generator: Adobe Illustrator 25.4.1, SVG Export Plug-In . SVG Version: 6.00 Build 0)  -->
<svg version="1.1" xmlns="http://www.w3.org/2000/svg" xmlns:xlink="http://www.w3.org/1999/xlink" x="0px" y="0px"
	 viewBox="0 0 1000 1000" style="enable-background:new 0 0 1000 1000;" xml:space="preserve">
<style type="text/css">
	.st0{fill:#FFFFFF00;}
	.st1{fill:#FFFFFF;stroke:#000000;stroke-width:3;stroke-miterlimit:10;}
	.st2{stroke:#000000;stroke-miterlimit:10;}
	.st3{fill:none;stroke:#000000;stroke-miterlimit:10;}
	.st4{stroke:#000000;stroke-width:0.25;stroke-miterlimit:10;}
	.st5{fill:#662D91;stroke:#662D91;stroke-miterlimit:10;}
	.st6{fill:#FFFFFF;}
	.st7{fill:none;}
	.st8{fill:#FF5FEF;stroke:#410074;stroke-width:3;stroke-miterlimit:10;}
	.st9{fill:none;stroke:#662D91;stroke-width:3;stroke-miterlimit:10;}
	.st10{fill:#410074;}
	.st11{fill:#FF5FEF;}
</style>
<g id="Слой_7">
	<rect class="st0" width="1000" height="1000"/>
</g>
<g id="osnova">
	<path class="st1" d="M424,84c-5.08,16.95-23.13,21.27-23,33c0.04,3.79,1.52,7.03,1.52,7.03c2.39,4.76,7.19,7.11,11.48,9.97
		c-2,11-14,21-6,32c2.5,7.33,6,11,12,15c2,9-4,7,3,21c3.43,6.94,9,12,14,14c0,0,7,3,8,20c-5,17-30,64-49,84c-47,63-47,82-54,95
		c-8,26-30,56-46,113c-2,10-1.24,14.79-7,25c-11,10-13.8,13.9-17,24c-1,8,2,16,2,24c-2,39-23,68-36,94c-26,49-18,64-20,74
		c-1,34,0,72,0,85c373,1,369,0,524,0c-1.16-4.51-2.5-8.84-4-13c-35.5-56.5-92.5-1.5-122-111c-0.02-0.65-0.03-1.7,0-3
		c0.61-24.84,16.26-38.73,27.5-60.5c10-19.37,3.06-22.96,12-36c11.23-16.37,14.2-18.88,16-25c2.33-7.9-0.93-14.05-3-21
		c0-41,4-53,7.5-91.5c-0.61-0.27-2.26-0.59-3-2c0,0,1-7,1-7s1-3-1-5c-1-3,3-11,3-11s1.75-4.98,2-6c1.74-7.21-0.64-9.14,1-16
		c0.98-4.12,2.02-4.18,2-7c-0.03-4.14-2.27-4.13-4-10c-1.39-4.71-1.62-10.38-4-12c-0.16-0.11-0.64-0.41-1-1
		c-0.27-0.45-0.82-1.63,0-4c3.51,2.29,5.16-9.23,6-8c0,0,3.65-5.76,5-9c0,0,2.27,2.1,4,2c1.91-0.12,3.95-2.76,4-5c-10-5-13-11-13-11
		c-7-11-8-30-8-30l-1-6c0,0,1-2,3-3c-2-6-8-9-8-9s-14-3.99-21-10c-2-1.71-1.91-2.12-9-9c-4.17-4.05-4.33-4.04-5-5
		c-3.56-5.13-0.95-8.31-3-16c-1.51-5.66-5.16-12.35-10-16c-1.65-1.24-3.09-1.87-5-4c-2.31-2.57-3.2-5-5-5c-0.85,0-1.43,0.54-2,1
		c-2.09,1.71-4.06,2.47-8,4c-2.31,0.9-12,1-12,1s-5,1-4-3c3-8,12-5,12-5s15-3,10-4s-5.89-0.89-13-5c-3.48-2.01-3.06-2.7-6-4
		c-2.68-1.18-4.49-1.25-12-2c-5.71-0.57-8.56-0.85-9-1c-5.78-1.98-7.07-5.76-12-6c-1.95-0.1-3.36,0.41-5,1
		c-5.72,2.05-6.44,5.46-13,10c-4.07,2.82-6.15,4.26-9,4c-3.05-0.27-4.6-2.27-8-2c-3.13,0.25-4.32,2.45-5,2
		c-1.62-1.08,6.74-12.05,10-27c6-13,2-22,2-22s-3-7,5-21c9-5,16-14,16-14c16-15,14-32,14-32s10-53,2-73c-3-6-12-9-12-9s-4-19-14-37
		c-4-11-7-13-7-13c-29-4-45,10-45,10s-4,4-3,13c-4.4,2.75-13-4-20-6c-7.02-2.01-9.22-1.19-10.85-0.62
		C440.63,29.67,438.73,37.96,436,44C420.62,78.04,425.93,77.55,424,84z"/>
	<path class="st1" d="M637,696"/>
	<path class="st1" d="M618.5,712.5c-5.09,7.02-7.52,17.5-6,17c2.34-0.77,19.94-27.12,18-27C628.99,702.59,622.64,706.78,618.5,712.5
		z"/>
	<path class="st1" d="M506.5,260.5c-2,10-10,40-3,18c2.11,0.9,8.82-4.49,8-11C511.06,264.03,508.47,260.18,506.5,260.5z"/>
	<path class="st1" d="M482.5,414.5c5,0,5,2,5,7c1-1,0-8,4-9C489.77,410.46,483.67,411.14,482.5,414.5z"/>
</g>
<g id="ruki">
	<path class="st2" d="M631.83,782.84"/>
	<path class="st2" d="M670.89,839.64c-0.62,1.03-1.52,1.43-1.52,1.43c-0.03,0.02-0.06,0.03-0.07,0.03
		c-12.8,9.4-62.8-61.6-85.28-85.81c-0.65-0.61-1.77-0.41-2.07,0.43c10.55,18.78,60.35,78.13,47.23,93.78
		c-2.61,2.67-7.3,1.87-11.65,1.06c-0.23-0.04-0.41-0.15-0.41-0.15s-0.11-0.06-0.2-0.15c-0.44-0.39-54.4-59.76-80.9-123.97
		c-0.47,0.04-1.38,0.12-2.46,0.59c0.96,17.62-2.39,15.68-10,47.45c-0.03,0.11-0.04,0.22-0.04,0.33c-5,20.83,3.56,38.9,6,38.83
		c1.15-0.03,1.98-4.61,2.49-8.44c0.01-0.04,0.01-0.08,0.01-0.13c0.14-4.55,0.71-11.23,2.83-19.01c1.56-5.74,3.04-8.16,4.36-12.92
		c1.15-4.17,2.12-9.65,2.6-18.74c0.07-1.34,1.87-1.71,2.45-0.5c13.39,28.25,44.32,88.85,44.94,97.24c0.03,0.33,0.17,0.65,0.41,0.87
		c0.67,0.62,1.35,1.22,2.04,1.8c0.24,0.2,0.55,0.31,0.86,0.31c76.53-0.52,73.93-0.5,74.51-0.52c46.09-1.64,56.5,1.02,72.77-0.61
		c0.31-0.36,0.75-0.91,1.23-1.67C732.5,821.5,727.5,807.5,706,792c-8.27-2.74-16-3-16-3c-7.27-0.25-15.8,1.01-23,1
		c-2.79,0-5.06-0.08-6.5-0.14c-1.22-0.03-2.53-0.1-3.91-0.23c-1.67-0.16-3.22-0.4-4.64-0.68c0,0-0.37-0.19-0.75-0.45
		c0,0-5.72-3.54-10.9-9.2c-13.8-23.8-23.8-48.8-23.8-48.8c6-35,26-14,36-85c1-2.44,2.23-5.39,3.65-8.74c0,0,4.13-9.69,6.27-12.78
		c0.06-0.08,0.1-0.17,0.13-0.26c3.76-10.24,10.09-17.85,10.87-18.77c0.06-0.07,0.11-0.14,0.15-0.22c0.44-0.8,2.65-5.25-0.07-8.87
		c-1-2-1-4-1-4c0-1.62,0.6-3.13,0.87-3.73c0.09-0.19,0.12-0.4,0.11-0.61l-1.97-28.63c0-0.02,0-0.04,0-0.06
		c-0.01-0.8-0.23-17.48,2-29.97c1.83-10.22,1.34-20.75,3-31c0.15-0.95,0.49-2.79-0.92-5.83c-0.05-0.11-0.12-0.23-0.2-0.32
		c-0.89-1.07-2.07-1.59-2.88-1.85c-0.01,0-0.02-0.01-0.02-0.01c-1.18-0.5-2.27,0.89-1.52,1.93c0.6,0.84,1.25,1.82,1.89,2.95
		c0.1,0.18,0.16,0.37,0.17,0.58c0.87,15.18-6.93,56.39-4.06,66.56c0.03,0.09,0.04,0.18,0.05,0.28c0.09,3.06-0.97,19.95,0.97,32.73
		c0.01,0.09,0.04,0.18,0.07,0.26c1.93,4.94,0.93,8.9-1.05,11.87c-5,9-12,18-14,22c-3.98,8.96-5.98,13.96-6,19.92
		c0,0.05,0,0.1-0.01,0.15c-0.13,0.89-0.49,3.42-1.99,3.93c-1.02,0.35-2.28-0.19-3-1c-0.89-0.89,1.37-4.13-0.2-6.95
		c-0.34-0.61-1.13-0.82-1.73-0.48c-1.97,1.12-2.27,0.41-3.75-0.41c-0.21-0.11-0.45-0.17-0.68-0.15
		c-5.21,0.42-3.12,10.03-11.12,19.35c-0.65,0.76-1.88,0.51-2.2-0.44c-0.33-0.99-0.71-2.15-1.14-3.43c-0.35-1.04-0.65-2.09-0.95-3.14
		c-0.85-2.97-4.96-17.26-8.23-18.36c-16.5,39.5-35.5,53.5-43.5,96.5C625.5,789.5,647.5,780.5,670.89,839.64z"/>
	<polyline class="st2" points="569.18,730.49 569.18,730.5 569.18,730.5 	"/>
	<path class="st2" d="M569.16,728.15"/>
	<path class="st2" d="M619.55,731.04"/>
	<path class="st2" d="M737.49,839.82"/>
	<line class="st2" x1="673.5" y1="790.86" x2="667.5" y2="789.86"/>
	<path class="st2" d="M668.18,597.5"/>
	<path class="st2" d="M341.3,421.08c0.14-1.45-1.86-1.98-2.46-0.66c-32.98,72.67-42.66,99.3-43.02,106.44
		c-0.06,1.11-0.44,7.85-3.08,16.23c-0.8,2.54-1.96,5.27-3.81,8.58c-0.07,0.12-0.16,0.24-0.27,0.33
		c-10.82,9.85-13.63,13.77-16.8,23.72c-0.03,0.09-0.05,0.18-0.06,0.27c-0.95,7.95,2.02,15.91,2.02,23.86c-2,39-23,68-36,94
		c-26,49-18,64-20,74c-6.51,69.01,0.32,84.36,0,85s-10.31-93.32,52.63-161.31c0.03-0.03,0.06-0.07,0.08-0.1
		c32.95-43.97,18.96-66.96,14.96-88.95c-5.63-26.27-0.85-35.7,6.51-41c0.72-0.52,1.73-0.15,1.98,0.7
		c10.01,33.58,26.21,45.85,40.66,48.53c13.11,2.43,31.25-8.61,30.6-11.78c-0.15-0.74-1.34-1.16-2.6-1.41
		c-0.1-0.02-0.19-0.05-0.28-0.09C288.24,564.59,334.97,488.05,341.3,421.08z"/>
	<path class="st2" d="M398.82,321.86"/>
	<path class="st2" d="M376.29,406.13c62.76-87.75,73.87-135.42,122.81-165.38c0.25-0.15,0.45-0.39,0.54-0.67
		c2.64-7.58,5.19-16.13,7.35-25.57c2.13-9.29,3.55-17.96,4.48-25.83c0.01-0.12,0.04-0.23,0.09-0.34
		c8.87-21.74,17.3-26.56,23.85-40.66c0.05-0.11,0.09-0.23,0.11-0.35c4.46-27.36,6.42-60.11-6.87-85.52c-0.1-0.2-0.26-0.37-0.44-0.49
		c-18.37-12.24-33.8-19.85-50.39-27.45c-20.21-8.76-25.93-8.75-29.94-7.49c-0.25,0.08-0.47,0.24-0.63,0.45
		c-34.7,45.73-24.54,56.75-23.43,57.03c0.6,0.15,1.67-14.14,13.04-28.29c6.88-8.56,15-13.92,21.66-17.33
		c0.31-0.16,0.66-0.18,0.99-0.07c27.54,8.9,34.53,14.95,44.45,34.77c0.02,0.04,0.04,0.08,0.05,0.12c1.17,2.98,1.23,4.2,4.81,14.47
		c0.1,0.3,0.31,0.55,0.59,0.71c6.87,3.88,14.38,7.11,6.64,24.63c-0.04,0.09-0.07,0.18-0.08,0.27c-1.26,7.01-3.95,10.81-8.81,16.66
		c-0.1,0.13-0.19,0.28-0.24,0.43c-2.78,8.46-0.69,10.77-3.87,15.68c-0.03,0.05-0.06,0.1-0.08,0.16c-2.73,6.32-6.29,9.36-12.16,10.6
		c-0.88,0.19-1.31,1.19-0.84,1.95c4.96,7.98,11.62,13.01,6.09,23.26c-0.04,0.07-0.07,0.14-0.09,0.22c-1.21,4.16-6,12.81-15.81,13.87
		c-0.1,0.01-0.21,0.04-0.31,0.07c-5.27,2.03-8.87,3.73-10.82,4.54c-0.74,0.31-1.58-0.13-1.75-0.91c-0.24-1.14,0.03-2.62,0.72-3.68
		c2.12-3.28,7.9-2.11,8-3c0.13-1.17-9.62-5.89-16-2c-3.46,2.11-2.76,4.83-7,11c-0.94,1.37-8.5,12.38-14,11
		c-4.43-1.12-5.74-9.82-5.96-11.67c-0.03-0.21,0-0.42,0.08-0.62c3.94-9.91,7.93-23.6,17.69-31.55c0.13-0.1,0.27-0.18,0.43-0.23
		c10.97-3.64,25.16-7.24,29.76-4.76c0.6,0.32,1.35,0.19,1.71-0.39c1.21-1.94,3.09-4.12,5.91-5.2c1.31-0.5,3.23-0.92,3.38-0.58
		c-18.11-8.32-55.85-12.33-67.29,23.6c-0.34,1.07-1.83,1.24-2.35,0.24c-3.72-7.04,0.76-20.84,5.64-28.84
		c10.18-16.66,29.61-20.91,42-23c9.48-1.6,17.14-1.2,22.35-0.77c1.53,0.12,1.95-2.05,0.49-2.51c-9.25-2.94-25.3-7.99-34.84-10.72
		c-3.01-0.7-13.12-2.65-23.39,2.83c-3.73,1.99-6.5,4.44-8.48,6.6c-0.78,0.85-2.21,0.29-2.23-0.87C422.66,46.99,497.13,98.34,496,91
		c-0.33-2.13-1.26-4.16-1.54-4.73c-0.05-0.11-0.11-0.2-0.19-0.29l-5.08-5.76c-0.13-0.15-0.29-0.26-0.47-0.34
		c-50.2-21.29-55.26-1.38-76.67,19.07c-0.03,0.03-0.07,0.07-0.1,0.1c-11.1,13.17-11.8,20.06-9.95,23.95
		c2.64,5.54,10.56,5.24,11.82,10.86c1.11,4.96-4.49,7.7-6.75,16c-1.67,6.14-0.58,11.88,0.75,16c2.44,7.15,5.83,10.82,11.57,14.71
		c0.28,0.19,0.48,0.48,0.55,0.81c0.12,0.56,0.23,1.26,0.28,2.06c0.02,0.33,0.05,0.96,0.01,1.78c-0.09,1.79-0.78,2.59-0.9,5.48
		c-0.09,2.24,0.56,5.29,3.5,11.17c3.43,6.94,9,12,14,14c0.06,0.05,0.12,0.09,0.18,0.14c3.54,2.86,7.16,8.2,7.78,18.87
		c0.03,0.58,0.44,1.08,1.01,1.2c1.76,0.38,3.52,0.75,5.28,1.13c0.76,0.16,1.21,0.96,0.95,1.69
		c-12.19,34.31-62.22,132.07-77.95,165.96C373.41,406.26,375.38,407.4,376.29,406.13z"/>
	<path class="st2" d="M525.82,10.86"/>
	<path class="st2" d="M546.82,60.86"/>
	<path class="st2" d="M519.23,54.57c-0.88,1.04,0.24,2.55,1.5,2.01c3.37-1.44,7.72-4.24,10.27-9.58c3.67-7.65,0.95-14.85,0.15-16.67
		c-0.1-0.22-0.13-0.47-0.1-0.7c1.12-8.1,4.23-10.16,3.09-13.27c-0.08-0.23-0.24-0.43-0.43-0.57c-5.04-3.81-13.77-5-22.65-4.78
		c-0.04,0-0.08,0-0.12,0.01c-1.13,0.13-18.16,2.21-27.85,8.93c-0.06,0.04-0.12,0.09-0.18,0.15c-1.3,1.23-2.28,2.59-2.28,2.59
		C479.97,23.59,479,25,478,28c-1.01,3.02-1.19,8.69,0,9c1.67,0.44,3.14-10.39,8-12C490.57,23.49,539.98,29.91,519.23,54.57z"/>
	<path class="st2" d="M381.52,597.13c-0.56,1.04,0.45,2.23,1.56,1.84c6.87-2.45,15.64-6.63,23.92-13.97
		c37.45-33.21,29.4-99.58,19.87-108.93c-0.74-0.72-1.99-0.25-2.15,0.77C411.69,562.54,405.57,552.3,381.52,597.13z"/>
	<path class="st2" d="M407.99,576.15c-3,33.79-10.94,56.7-17.91,74.65c-0.05,0.14-0.08,0.28-0.09,0.43C389,690.1,389,716.09,389,762
		c0.95,57.17-3.54,78.02-8.29,90.25c-0.33,0.85,0.29,1.75,1.2,1.75h61.68c0.77,0,1.37-0.67,1.28-1.43
		c-1.85-16.53-18.29-49.55-32.86-83.53c-0.01-0.03-0.02-0.05-0.03-0.08C396,724.98,403.94,696.66,404,695c0.33-9.72,6-19,2-42
		s0.16-26.28,1-38c2.35-32.79,9.5-55.6,8-56c-1.22-0.33-6.22,14.63-6.96,16.87C408.01,575.96,408,576.05,407.99,576.15z"/>
	<path class="st2" d="M432.06,667.17c-0.04-0.11-0.09-0.21-0.16-0.31c-1.51-2.09-3.43-4.44-5.82-6.84c-1.38-1.39-2.75-2.61-4.06-3.7
		c-0.98-0.81-2.43,0.12-2.07,1.35c3.76,12.74,17.35,50.76,27.05,76.33c12.48,33.61,33.26,64.44,49.94,77.47
		c0.84,0.66,2.08,0.05,2.08-1.01c0.02-11.5-1.02-24.49-4.02-38.46C486.51,732.54,453.56,725.51,432.06,667.17z"/>
	<path class="st2" d="M615,728"/>
	<path d="M674,600c-1.67,2.04-9.78,18.25-17,33c-0.07,0.15-5.62,7.08-7,16c-0.13,0.84-0.46,3.02,0,3c0.66-0.03,4.03-5.33,7-14
		c3.44-10.03,7-16,10-21c1.78-2.69,3.21-5.8,7-11C676.14,603.06,675.39,598.29,674,600z"/>
	<path class="st2" d="M641.02,853.31c51.83,0.67,79.83,0.69,99.24,0.69c1.05,0,1.68-1.21,1.04-2.05c-0.55-0.73-1.49-1.63-3.04-2.76
		c-0.17-0.12-0.37-0.21-0.57-0.24c-29.18-4.66-66.97-1.31-96.8,1.79C639.27,850.9,639.4,853.28,641.02,853.31z"/>
	<path class="st3" d="M676.92,498.62c0.05-0.42-0.1-0.82-0.41-1.1c-0.59-0.53-1.33-1.06-1.51-0.52c-2.4,7.16-4.75,67.99-4,62
		c0.13-1,1.99-22.92,3.99-34.93c0.01-0.05,0.01-0.09,0.01-0.14C675.54,513.4,676.17,504.81,676.92,498.62z"/>
	<path class="st2" d="M515,228c0.19,0.44,0.71,1.59,0.35,2.85c-1.65,5.77-19.65,4.67-19.35,6.15c0.35,1.75,9.83-1.41,14,3
		c-4.41,18.34-6.07,27.67-5,28c16.5-25.5,19.5-46.5,15.5-61.5c-1.4-10.07,20.67-22.83,29.5-40.5c0.44-0.89,3.72-3.28,3.9-6.97
		c0.09-1.77-0.5-3.21-0.9-4.03c-8.5,17.5-17.5,23.5-38,37C515.5,206.5,514.5,218.5,515,228z"/>
	<path class="st3" d="M556,153"/>
	<path class="st4" d="M556,154c-0.6,2.89-2.18,6.19-3,6c-0.75-0.18-1-2,0-6s5-6,3-4C556.76,150.29,556.06,153.7,556,154z"/>
</g>
<g id="volosi_x2B_4asi">
	<path class="st2" d="M663.5,479.5c0.79,1.86,1.84,4.13,3.4,6.73c3.36,5.62,7.18,9.63,10.09,12.26c0.36-1.99,0.45-4.47-1-6
		c-1.13-1.19-2.37-0.74-3-2c-1-2,1-7,1-7s1-3-1-5c-1-3,3-11,3-11s1.75-4.98,2-6c1.74-7.21-0.64-9.14,1-16c0.98-4.12,2.02-4.18,2-7
		c-0.03-4.14-2.27-4.13-4-10c-1.39-4.71-1.62-10.38-4-12c-0.16-0.11-0.64-0.41-1-1c-0.27-0.45-0.82-1.63,0-4
		c3.51,2.29,5.16-9.23,6-8c0,0,3.65-5.76,5-9c0,0,2.27,2.1,4,2c1.91-0.12,3.95-2.76,4-5c-10-5-13-11-13-11c-7-11-8-30-8-30l-1-6
		c0,0,1-2,3-3c-2-6-8-9-8-9s-14-3.99-21-10c-2-1.71-1.91-2.12-9-9c-4.17-4.05-4.33-4.04-5-5c-3.56-5.13-0.95-8.31-3-16
		c-1.51-5.66-5.16-12.35-10-16c-1.65-1.24-3.09-1.87-5-4c-2.31-2.57-3.2-5-5-5c-0.85,0-1.43,0.54-2,1c-2.09,1.71-4.06,2.47-8,4
		c-2.31,0.9-12,1-12,1s-5,1-4-3c3-8,12-5,12-5s15-3,10-4s-5.89-0.89-13-5c-3.48-2.01-3.06-2.7-6-4c-2.68-1.18-4.49-1.25-12-2
		c-5.71-0.57-8.56-0.85-9-1c-5.78-1.98-7.07-5.76-12-6c-1.95-0.1-3.36,0.41-5,1c-5.72,2.05-6.44,5.46-13,10
		c-4.07,2.82-6.15,4.26-9,4c-3.05-0.27-4.6-2.27-8-2c-3.13,0.25-4.32,2.45-5,2c-6.48,14.17-15.29,33.45-21.49,47.01
		c-25,66-32,83-42,116c7.76,8.7,22-18,68-6c22,6,51,21,84,6c7.59-3.04,14.67-4.09,21.01-3.96c15.32,0.3,30.99,10.97,30.99,10.96l0,0
		C666.5,440.5,657.5,475.5,663.5,479.5z"/>
	<path d="M535.5,509.5c-9.08,7.59-32.18,9.02-38,2c-5.66-6.82-13.36,1.09-16-2c-4.07-4.77-1.52-15.87,5-21c8.38-6.59,28.19,7.4,27,1
		C509.75,469.4,543,503.23,535.5,509.5z"/>
	<polygon class="st5" points="489,193.82 489,188.95 491,188.95 491,195 	"/>
	<polygon class="st5" points="469,192 468.65,188.95 471.16,188.95 471.16,192.44 	"/>
	<path d="M629,418.5c6.31,12.37,12.08,10.22,16.82,12.37c13.31,7.87,15.34,6.98,18.92,4.5c3.8-2.63,1.16-12.48-6.31-17.43
		C648.31,411.22,630.44,414.25,629,418.5z"/>
	<path d="M563.3,425.35c21.49,10.15,24.99,1.76,32.56,0.02c23.47-2.5,24.52-5.62,25.32-12.33c0.84-7.12-13.76-17.49-27.57-16.79
		C574.88,397.2,559.71,418.38,563.3,425.35z"/>
	<path d="M452.74,423.2c22.95,6.18,24.9-2.69,32.05-5.74c22.65-6.62,23.14-9.88,22.73-16.62c-0.43-7.15-16.64-14.78-30.11-11.64
		C459.16,393.45,447.98,416.98,452.74,423.2z"/>
	<path class="st6" d="M472.26,186.32c-0.92-0.67-3.11,0.42-5.46,2.66c3.18,0.02,3.18,1.02,5.18,1.04
		C473.04,189,473.08,186.92,472.26,186.32z"/>
	<path class="st6" d="M492,188c0,2-3,4-5,5c-1-0.61-0.56-5.28,2-6C490.1,186.69,491.69,187.09,492,188z"/>
</g>
<g id="lico">
	<path class="st2" d="M575,512c-0.28-2.9-0.39-6.14-0.17-9.65c0.67-10.91,5.67-13.85,7.17-25.35c-0.89-4.92-3.07-13.16-8.98-21.55
		C564.35,443.14,552.88,437.9,548,436c28.5-1.5,55.5-0.5,85,4c2.97,4.16,6.04,8.89,9.02,14.2c2.31,4.11,4.28,8.06,5.98,11.8
		c-18.5,4.5-10.5,4.5-44.5,8.5C595.5,496.5,577.5,510.5,575,512z"/>
	<path class="st2" d="M468,670c15.24,1.93,35.02-7.1,40.9-23.74c3.05-8.66,1.43-16.79,0.1-21.26c43-8,59.44-25.8,59-27
		c-0.29-0.8-5.39,1.39-10-1c-6.45-3.35-7.96-13.61-8-23c14-24,17.14-54.76,19-56c1.67-1.11,5,3,6,7c2,18,4,19-0.22,41.72
		c-0.33,0.57-0.5,0.86-0.78,1.28c-5.76,8.47-16.72,5.77-19,11c-1.8,4.14-0.28,10.23,3,12c5-1,10.78-5.62,18-3
		c3.54,1.28,2.95,3.57,7,6c7.47,4.49,13.32-1,19,2c4,7,2,24,5,32c-3.12,2.33-8.19,6.89-10.78,14.21c-0.59,1.68-0.98,3.3-1.22,4.79
		c-41.5,30.5-41.79,81.94-43,82c-0.56,0.03-1.1-0.02-1.1-0.02c-0.4-0.03-0.75-0.09-1.02-0.16c-8.37-8.33-11.6-19.78-11.87-21.83
		c-107.5-19.5-135-97-135-97c3.07-15.6,6.27-31.35,9.62-47.25c4.34-20.58,8.8-40.83,13.38-60.75c-0.05-14.21-2.71-14.64-2-30
		c4,3,14-37,26-62c9.39-3.35,20.59,0.14,21,3c0.35,2.48-9.12,4.17-17,11c0,0-10.44,9.05-14,31c-10.5,53.5,1.5,92.5,66,160
		c-9.68-8.75-21.29-18.04-35-27c-7.6-4.97-14.98-9.27-22-13c-0.82,3.32-2.35,8.19-5.33,13.48c-4.3,7.63-8.71,10.98-10.67,13.52
		C442.5,636.5,452.5,651.5,468,670z"/>
	<path d="M576,576c-3,3,5,10,7,12c4-1,8-1,5-6C587,578,578,576,576,576z"/>
	<path class="st2" d="M648,640c0.92,0.06,1.64-7.2,5-19c1.35-4.73,2.08-6.49,2.66-7.81c2.09-4.72,4.08-6.71,6.34-14.19
		c1.33-12.15,2.33-22.13,3-29c-1-34,4-49,5-56c0.05-3.05,0.13-11.43,2-22.38c0.72-4.22,1.5-7.6,2-9.62c-3.22-6.12-9.48-8.6-13-10
		c-11,12-15,4-46,13c0,5-5.26,7.71-7,12c-0.56,1.38-1.58,4.13-4,5c-1.56,0.56-2.3-0.16-4,0c-3,6-8,7-8,9c1,3,6,5,3,8
		c-2.36,2.36-1.83,3.12-1.96,3.46c-0.48,1.19-0.1,3.34,3.96,7.54c-2,28,6,49,5,51c-4,8-5,12-6,17c1.15,2.52,4.05,4.63,6,4
		c1-1,1-16,3-20c-3.55-35.11-4.55-52.77-3-53c7-5,20,51,23,110c3.93-11.02,7.71-22.54,11.25-34.56C646,558,650,531,658,499
		c0.7-0.86,3.42-4.06,6.01-3.43c0,0,0,0,0,0c0,0,0.99,0,1.99,1.43c1.88,2.7-5,43-5,43c0,8,1,22,0.58,35.28
		c-0.26,8.28-1.49,14.58-2.34,17.93C654,614,646,623,647,635C647.11,637.46,647.47,639.97,648,640z"/>
	<path class="st7" d="M604,517c0.13-5.45,10.83-9.52,17-11c8.1-1.94,24.06-3.16,27,4c0,5-4,12-8,15c-5.49,1.96-7.51-3.38-18-4
		c-8.33-0.49-12,0-17-1C604.89,519.86,603.96,518.64,604,517z"/>
	<path class="st6" d="M652,503c-0.97,0.8-2.93,7.64-2,7c0.31-0.21,1.77-1.37,2-3C652.26,505.18,652.09,502.92,652,503z"/>
	<path class="st6" d="M649,512c-0.67-0.06-1.19,2.07-2,4c-2.71,6.47-8.21,9.76-8,10c0.16,0.18,2.99-2.16,4-3
		c6.21-5.15,6.91-6.64,7-8C650.09,513.58,649.55,512.05,649,512z"/>
	<path class="st6" d="M605,521c1.55-0.23,7.69,0.83,11,1c3,1,5,1,7,2c3,0,5,1,8,0c0.54,0.44,1.22,1.31,1,2c-0.55,1.68-6.2,1.27-9,1
		c-6.35-0.62-9.05-1.67-10-2C612,524,604.33,521.1,605,521z"/>
	<path class="st6" d="M641,507c1,3,1.69,7.74-1,11c-4,5-11.2,4.63-12,3c-0.45-0.9,1-3,3-5c2-3,2-6,3-9c0.16-0.13,0.89-0.71,2-1
		C638,507,639,507,641,507z"/>
	<path class="st6" d="M621,508c-1.09-0.46-5.15,3-4,3c-0.85-0.01-1.1,2.8,0,3C618.1,514.2,621.95,508.4,621,508z"/>
	<path class="st6" d="M608,513c-0.37,1.35,0.98,4.73,1,5c0.09,1.06-3.98,0.16-4-1C604.96,515.13,608.36,511.68,608,513z"/>
	<ellipse class="st8" cx="489" cy="496.5" rx="36.5" ry="35"/>
	<path class="st7" d="M490,490c-0.33-7-0.67-14-1-21"/>
	<line class="st9" x1="470" y1="191" x2="489" y2="461"/>
	<line class="st9" x1="490" y1="193" x2="489" y2="461"/>
	<path class="st2" d="M625.37,619.15c1.52-0.35,6.76-27.54-0.23-46.81c8.17-14.15,2.71-19.97,1.76-20.2
		c-1.23-0.29-6.59,12.34-8.2,26.3C616.13,600.6,623.74,619.52,625.37,619.15z"/>
	<path d="M645,552c2,17,0,42-12,54c-4.03-0.28-9.58-21.29-1-39C635.23,560.34,642.09,550.77,645,552z"/>
</g>
<g id="Слой_6">
	<path class="st10" d="M509.47,467.4c-0.81,0.36-0.39,1.89-0.95,5.92c-0.68,4.91-2.16,8.77-3.33,11.32
		c-6.42,3.23-8.56,5.38-12.85,6.46c-2.92-2.08,2-8.99-1.07-18.31c-0.46-1.4-3.09-10.25-8.56-10.77
		c-16.55-1.58-36.4,28.82-25.69,29.08c1.95,0.05,4.28,4.31,12.85-3.23c5.35,2.15,6.42,7.54,8.56,9.69c3.21,8.62,9.06-2.05,9.63-1.08
		c0.65,1.09-4.28,11.85-11.77,10.77c-9.63,3.23-12.35,6.63-13.92,8.62c-6.35,8.03,29.32,20.11,34.25,15.08
		c0-5.38-7.49-2.15-5.35-17.23c-0.16-2.21-0.59-8.33,2.14-9.69c2.64-1.32,5.45,3.2,12.85,5.38c4.41,1.3,8.09-2.13,12.85,0
		c0.92,0.41,1.29,0.73,1.9,0.6c3.08-0.65,4.25-11.03,3-19C521.85,477.33,511.9,466.34,509.47,467.4z"/>
	<g>
		<path class="st11" d="M505.56,452.08c3.85,1.03,7.59,2.5,11.25,4.29c1.81,0.93,3.6,1.93,5.34,3.03c1.71,1.14,3.39,2.37,5.01,3.69
			c1.6,1.33,3.34,2.59,4.93,4.02c1.6,1.43,2.87,3.15,3.75,5.1c0.89,1.94,1.49,4.02,1.78,6.19c0.11,1.1,0.2,2.19,0.14,3.33
			c-0.08,1.15-0.22,2.3-0.57,3.5l-1.01,0.42c-1.14-0.56-2.06-1.18-2.94-1.8c-0.88-0.62-1.71-1.23-2.45-1.86
			c-1.53-1.25-2.86-2.52-4.1-3.82c-0.58-0.67-1.19-1.32-1.68-2.04c-0.48-0.73-0.96-1.47-1.37-2.27c-0.82-1.59-1.65-3.24-2.75-4.68
			c-1.07-1.46-2.23-2.88-3.46-4.25c-1.19-1.42-2.47-2.78-3.81-4.11c-2.64-2.71-5.56-5.22-8.58-7.76L505.56,452.08z"/>
	</g>
	<g>
		<path class="st10" d="M519.34,441.76c-5.06-1.91-10.14-3.46-15.25-4.29c-1.27-0.22-2.56-0.36-3.82-0.54
			c-1.27-0.12-2.55-0.17-3.81-0.27l-3.77-0.07c-1.26,0.08-2.5,0.12-3.74,0.21c-1.24,0.16-2.47,0.32-3.68,0.58
			c-1.21,0.32-2.41,0.58-3.59,0.94c-1.18,0.38-2.36,0.62-3.55,0.9c-1.18,0.31-2.4,0.43-3.62,0.64l-1.85,0.26
			c-0.63,0.07-1.26,0.13-1.88,0.23c-1.26,0.19-2.56,0.29-3.88,0.43c-1.31,0.16-2.68,0.24-4.08,0.31c-1.4,0.09-2.84,0.15-4.41,0.04
			l-0.51-0.96c0.83-1.32,1.79-2.47,2.79-3.58c1.03-1.07,2.15-2.01,3.29-2.94c1.15-0.91,2.41-1.65,3.66-2.41
			c1.26-0.75,2.62-1.3,3.96-1.89c1.35-0.57,2.79-0.92,4.21-1.26c1.43-0.32,2.92-0.39,4.39-0.47c1.48-0.04,2.96,0.07,4.43,0.12
			c1.47,0.09,2.93,0.27,4.37,0.33c1.45,0.16,2.89,0.36,4.32,0.55c1.42,0.29,2.83,0.56,4.23,0.87c1.38,0.41,2.76,0.79,4.11,1.24
			c1.34,0.51,2.68,0.96,3.98,1.51c5.19,2.25,9.98,5.13,14.24,8.57L519.34,441.76z"/>
	</g>
	<g>
		<path class="st10" d="M540.72,510.09c-1.16,3.82-2.76,7.5-4.68,11.1c-0.99,1.77-2.06,3.53-3.22,5.23
			c-1.2,1.67-2.48,3.31-3.86,4.88c-1.39,1.55-2.7,3.25-4.19,4.78c-1.48,1.55-3.25,2.76-5.23,3.57c-1.97,0.82-4.07,1.35-6.25,1.56
			c-1.1,0.08-2.2,0.13-3.33,0.03c-1.14-0.12-2.29-0.3-3.48-0.69l-0.39-1.02c0.6-1.12,1.25-2.02,1.9-2.87
			c0.65-0.85,1.29-1.66,1.95-2.39c1.3-1.48,2.62-2.77,3.96-3.96c0.69-0.56,1.36-1.14,2.1-1.61c0.75-0.46,1.5-0.91,2.31-1.29
			c1.62-0.76,3.3-1.54,4.78-2.58c1.5-1.02,2.95-2.13,4.37-3.31c1.46-1.14,2.87-2.37,4.24-3.66c2.8-2.54,5.41-5.38,8.05-8.31
			L540.72,510.09z"/>
	</g>
	<g>
		<path class="st11" d="M471.72,542.86c-3.85-1.03-7.59-2.5-11.25-4.29c-1.81-0.93-3.6-1.93-5.34-3.03
			c-1.71-1.14-3.39-2.37-5.01-3.69c-1.6-1.33-3.34-2.59-4.93-4.02c-1.6-1.43-2.87-3.15-3.75-5.1c-0.89-1.94-1.49-4.02-1.78-6.19
			c-0.11-1.1-0.2-2.19-0.14-3.33c0.08-1.15,0.22-2.3,0.57-3.5l1.01-0.42c1.14,0.56,2.06,1.18,2.94,1.8
			c0.88,0.62,1.71,1.23,2.45,1.86c1.53,1.25,2.86,2.52,4.1,3.82c0.58,0.67,1.19,1.32,1.68,2.04c0.48,0.73,0.96,1.47,1.37,2.27
			c0.82,1.59,1.65,3.24,2.75,4.68c1.07,1.46,2.23,2.88,3.46,4.25c1.19,1.42,2.47,2.78,3.81,4.11c2.64,2.71,5.56,5.22,8.58,7.76
			L471.72,542.86z"/>
	</g>
	<g>
		<path class="st10" d="M441.64,486.67c-0.15-3.99,0.15-7.99,0.79-12.02c0.36-2,0.79-4,1.33-6c0.59-1.97,1.26-3.94,2.05-5.87
			c0.8-1.92,1.49-3.95,2.4-5.89c0.89-1.95,2.17-3.67,3.77-5.08c1.59-1.42,3.41-2.61,5.39-3.52c1.02-0.43,2.04-0.84,3.14-1.11
			c1.12-0.26,2.26-0.46,3.51-0.49l0.7,0.84c-0.2,1.25-0.52,2.32-0.86,3.34c-0.33,1.02-0.67,1.99-1.06,2.89
			c-0.75,1.83-1.57,3.48-2.45,5.04c-0.47,0.76-0.91,1.52-1.46,2.21c-0.56,0.68-1.12,1.35-1.77,1.97c-1.28,1.25-2.62,2.53-3.67,4
			c-1.08,1.45-2.09,2.98-3.05,4.56c-1,1.56-1.93,3.18-2.81,4.85c-1.82,3.32-3.36,6.85-4.89,10.48L441.64,486.67z"/>
	</g>
	<g>
		<path class="st11" d="M544.62,531.46c2.16-4.94,3.94-9.95,5.01-15.05c0.28-1.27,0.47-2.55,0.71-3.81
			c0.18-1.27,0.29-2.56,0.44-3.82l0.23-3.8c-0.02-1.27-0.02-2.53-0.06-3.78c-0.12-1.26-0.2-2.51-0.41-3.75
			c-0.26-1.24-0.45-2.46-0.76-3.67l-0.42-1.82c-0.13-0.61-0.21-1.21-0.36-1.82c-0.28-1.21-0.39-2.44-0.59-3.68l-0.26-1.87
			c-0.07-0.63-0.13-1.27-0.24-1.9c-0.2-1.26-0.31-2.56-0.47-3.88c-0.18-1.31-0.29-2.65-0.4-4.04c-0.11-1.38-0.25-2.77-0.19-4.3
			l0.83-0.42c1.2,0.91,2.21,1.95,3.24,3c0.97,1.08,1.81,2.24,2.65,3.42c0.82,1.19,1.48,2.47,2.16,3.74
			c0.67,1.28,1.15,2.64,1.68,3.99c0.51,1.36,0.8,2.78,1.1,4.2c0.29,1.42,0.3,2.9,0.39,4.34c0.01,1.46-0.11,2.92-0.15,4.36
			l-0.38,4.31c-0.18,1.43-0.4,2.85-0.6,4.26c-0.31,1.4-0.59,2.8-0.92,4.18c-0.43,1.36-0.82,2.72-1.28,4.06
			c-0.52,1.32-0.99,2.64-1.54,3.93c-2.28,5.12-5.19,9.86-8.63,14.09L544.62,531.46z"/>
	</g>
	<g>
		<path class="st10" d="M462.08,548.89c5.16,1.6,10.33,2.84,15.48,3.36c1.28,0.15,2.57,0.2,3.84,0.31c1.28,0.05,2.56,0.02,3.82,0.04
			l3.77-0.16c1.25-0.15,2.49-0.27,3.72-0.44c1.23-0.23,2.44-0.47,3.64-0.8c1.19-0.4,2.37-0.73,3.53-1.16
			c1.15-0.45,2.32-0.76,3.49-1.12c1.16-0.38,2.37-0.58,3.57-0.86l1.83-0.38c0.62-0.1,1.25-0.2,1.87-0.34
			c1.24-0.27,2.54-0.45,3.85-0.66c1.3-0.24,2.66-0.4,4.06-0.56c1.39-0.18,2.82-0.32,4.4-0.3l0.57,0.93
			c-0.75,1.37-1.64,2.57-2.57,3.74c-0.96,1.13-2.02,2.14-3.11,3.13c-1.1,0.98-2.3,1.79-3.51,2.63c-1.21,0.82-2.53,1.45-3.84,2.13
			c-1.32,0.65-2.73,1.09-4.13,1.51c-1.41,0.4-2.9,0.57-4.35,0.74c-1.47,0.13-2.96,0.11-4.43,0.15c-1.47,0-2.94-0.09-4.39-0.07
			c-1.45-0.07-2.9-0.19-4.34-0.29c-1.43-0.2-2.86-0.38-4.28-0.61c-1.4-0.33-2.8-0.62-4.18-0.99c-1.36-0.42-2.73-0.8-4.06-1.27
			c-5.32-1.93-10.27-4.52-14.73-7.69L462.08,548.89z"/>
	</g>
	<g>
		<path class="st11" d="M428.43,461.69c-1.56,5.17-2.76,10.35-3.24,15.51c-0.14,1.28-0.18,2.57-0.28,3.85
			c-0.04,1.28,0,2.56-0.01,3.82l0.18,3.77c0.16,1.25,0.29,2.49,0.47,3.71c0.24,1.22,0.49,2.44,0.83,3.63
			c0.41,1.18,0.75,2.36,1.18,3.52c0.46,1.15,0.78,2.32,1.14,3.48c0.39,1.16,0.6,2.36,0.89,3.56l0.39,1.83
			c0.11,0.62,0.21,1.25,0.36,1.86c0.28,1.24,0.46,2.53,0.69,3.84c0.25,1.3,0.42,2.65,0.59,4.05c0.19,1.39,0.34,2.82,0.34,4.4
			l-0.92,0.58c-1.37-0.74-2.58-1.62-3.76-2.54c-1.14-0.95-2.15-2.01-3.16-3.09c-0.99-1.09-1.81-2.29-2.65-3.49
			c-0.83-1.21-1.47-2.52-2.16-3.82c-0.66-1.31-1.11-2.72-1.54-4.12c-0.41-1.41-0.59-2.89-0.77-4.35c-0.14-1.47-0.13-2.96-0.19-4.42
			c-0.01-1.47,0.06-2.94,0.03-4.39c0.06-1.45,0.17-2.9,0.25-4.34c0.19-1.44,0.36-2.87,0.58-4.28c0.32-1.41,0.6-2.81,0.96-4.19
			c0.41-1.37,0.78-2.74,1.23-4.07c1.89-5.33,4.43-10.3,7.58-14.79L428.43,461.69z"/>
	</g>
</g>
</svg>
