<?xml version="1.0" encoding="UTF-8" standalone="no"?> <svg xmlns:dc="http://purl.org/dc/elements/1.1/" xmlns:cc="http://creativecommons.org/ns#" xmlns:rdf="http://www.w3.org/1999/02/22-rdf-syntax-ns#" xmlns:svg="http://www.w3.org/2000/svg" xmlns="http://www.w3.org/2000/svg" xmlns:sodipodi="http://sodipodi.sourceforge.net/DTD/sodipodi-0.dtd" xmlns:inkscape="http://www.inkscape.org/namespaces/inkscape" width="417.89053px" height="258.75012px" viewBox="0 0 417.89053 258.75012" id="svg125" sodipodi:docname="LOGO_Stilus_2018.svg" inkscape:version="0.92.1 r15371"><metadata id="metadata131"></metadata><defs id="defs129"></defs><g id="surface50" transform="translate(-93.128906,-89.300671)"><path style="fill:#00943d;fill-opacity:1;fill-rule:evenodd;stroke:none" d="m 298.84766,246.77734 c 5.04296,0 9.14062,-3.8164 9.14062,-8.53125 0,-4.70703 -4.09766,-8.52734 -9.14062,-8.52734 -5.05079,0 -9.14454,3.82031 -9.14454,8.52734 0,4.71485 4.09375,8.53125 9.14454,8.53125" id="path4" inkscape:connector-curvature="0"></path><path style="fill:#00943d;fill-opacity:1;fill-rule:evenodd;stroke:none" d="m 259.94141,183.76172 c -7.9375,0 -17.32422,7.55078 -23.8125,19.51172 -4.57813,8.39843 -6.4961,14.17968 -10.35547,35.80078 -36.83594,16.5039 -59.21094,-14.59766 -40.65235,-33.0586 1.26563,-1.19531 5.58594,-4.89453 8.78907,-3.01953 3.39453,2 4.71484,2.4336 6.48437,2.4336 3.54297,0 6.18359,-1.94141 6.18359,-4.875 0,-2.92188 -2.94921,-5.1211 -7.0664,-5.1211 -9.15625,0 -17.88281,9.10938 -17.88281,9.10938 -19.59766,20.44922 3.9414,53.85156 43.66796,38.1914 -2.16015,12.38282 -4.8125,21.82813 -7.70312,29.38282 -9.625,25.1875 -24.29297,38.48047 -45.11328,37.48047 -9.9375,-0.46875 -16.17969,-8.22266 -17.25391,-11.40235 -0.76562,-2.26953 -1.05469,-5.95703 2.4961,-7.79687 2.46484,-1.26563 4.32812,-0.0859 6.98437,-1.78907 3.27734,-2.10937 3.80469,-5.1875 2.14844,-8.21484 -1.88672,-3.46484 -5.89844,-4.3125 -10.14063,-2.13672 -7.0664,3.61719 -10.15625,11.82031 -7.07031,19.07813 2.98828,7.98828 11.71484,15.29687 22.83594,16.25781 36.14844,3.11719 66.34765,-27.07813 66.28515,-70.02344 v -6.08594 c 23.61719,-12.7539 32.47657,-27.28125 32.47657,-41.55468 0,-6.92578 -4.80469,-12.16797 -11.30078,-12.16797 z m -21.17579,50.78906 c 0,-8.61328 2.17188,-23.71875 4.33204,-31.0625 3.375,-10.08203 10.10937,-17.41406 16.60937,-17.41406 4.57422,0 8.19922,2.86719 8.19922,8.11328 0,6.50391 -1.72656,14.50391 -8.05078,22.91406 -4.90235,6.50781 -9.53516,10.14063 -21.08985,17.44922" id="path6" inkscape:connector-curvature="0"></path><path style="fill:#00943d;fill-opacity:1;fill-rule:evenodd;stroke:none" d="m 440.98828,246.03906 1.80078,0.2461 c 4.8125,2.4375 4.8125,2.4375 6.60547,2.4375 3.61328,0 6.30469,-1.94532 6.30469,-4.86719 0,-2.9336 -3,-5.17969 -7.20313,-5.125 -13.66797,0.13672 -31.99218,21.16015 -42.25,41.64453 -9.90234,19.79687 -16.83984,29.8125 -22.20312,30.01562 -2.25391,0.0625 -3.55469,-1.48828 -3.55469,-3.65234 0,-1.21484 0.32031,-3.41406 1.20703,-5.61328 l 16.21485,-48.28906 H 383.5 c -0.58984,1.95312 -12.3125,34.63281 -18.90234,45.125 -4.50782,7.07422 -9.60938,11.69922 -12.60938,11.69922 -1.19531,0 -2.10547,-0.96485 -2.10547,-2.1875 0,-1.22266 0.91016,-4.875 2.40625,-9.03125 l 15.60547,-45.55079 c -4.08594,0 -11.05078,-0.0547 -15.00391,-0.0547 0,0 -4.78515,13.83593 -9.125,26.82812 -3.50781,10.46875 -15.99609,30.2461 -22.82421,30.2461 -1.78907,0.004 -3.28516,-1.46875 -3.28516,-3.41407 0,-1.71093 0,-1.71093 4.19531,-15.12109 l 19.30469,-61.53125 c -4.02734,0 -9.0625,0 -14.48828,0 0,0 -12.10547,39.04297 -15.58985,50.55078 -3.48437,11.52344 -16.88281,29.79297 -22.21484,29.75391 -2.14453,0.0391 -3.59766,-1.70703 -3.59766,-3.41016 0,-1.70312 0,-1.70312 2.69141,-10.98047 l 14.60938,-43.41797 c -3.91016,0 -11.04688,0 -14.60938,0 0,0 -5.13281,15.55078 -9.34375,28.22657 -4.22656,12.67187 -16.54297,29.09375 -22.47656,29.09375 -2.11328,0 -3.60938,-1.70313 -3.60938,-3.89844 0,-1.22656 0.60938,-3.41406 1.79688,-6.58203 L 268.125,258.10156 h 7.80078 l 0.91797,-3.3125 h -7.80469 L 277.75,229.94141 c -6.20313,0 -14.40625,-0.0273 -14.40625,-0.0273 l -8.41406,24.875 h -10.71485 l -0.92187,3.3125 h 10.73047 l -10.80469,30.59375 c -1.5,4.63281 -2.39844,8.53125 -2.39844,11.45703 0,7.5625 5.70703,13.42578 13.50391,13.42578 6.3125,0 10.82031,-3.17968 15.91406,-10.98046 1.06641,-1.6836 2.15625,-3.47266 3.21484,-5.30469 -0.16015,1.04687 -0.20312,1.97656 -0.20312,3.10937 0,7.07032 6.30078,13.17578 13.81641,13.17578 7.07031,0 12.44921,-4.72265 19.88671,-18.11328 -0.44921,2.3125 -0.70703,4.35547 -0.70703,5.66016 0,6.83203 5.70703,12.45312 12.61328,12.45312 6.88282,0 11.39844,-3.42968 18,-13.91406 0.34375,-0.61328 0.64844,-1.15234 0.92969,-1.64453 -0.54687,2.29688 -0.8164,4.36328 -0.8164,6.03516 0,5.85547 4.51171,9.7539 10.80859,9.7539 8.10937,0 11.40625,-2.68359 21.01172,-16.33203 v 2.67578 c 0,8.3711 4.50781,13.82032 11.75781,13.96485 l 0.0859,-0.0234 c 11.14844,0.0898 18.37109,-12.03516 28.48437,-32.79297 7.80469,-16.01172 15.45313,-24.4375 24.37891,-32.08203 3.89453,10.48047 5.09766,15.84766 5.09766,23.66016 0,9.2539 -2.39454,16.57812 -8.40235,26.82812 -4.20703,7.06641 -7.80859,9.99219 -12.30859,9.99219 -5.23828,0 -6.99219,-3.69922 -6.99219,-5.64453 0,-2.84766 1.08984,-4.25 3.09766,-5.5625 2.33593,-1.53125 4.41015,-0.0977 7.10156,-1.80469 3.35547,-2.10156 3.88672,-5.17578 2.20312,-8.20313 -1.92578,-3.46484 -6.01953,-4.3125 -10.33203,-2.14453 -5.88672,2.96094 -9.04297,8.99219 -8.30078,15.05469 0.14844,1.79688 0.69141,3.46875 1.57422,4.98438 0.0742,0.14062 0.25781,0.4414 0.25781,0.4414 2.79297,4.39844 8.46094,7.27344 14.99219,7.27344 16.50781,0 30.91797,-14.87891 30.91797,-32.19922 0,-8.52734 -5.41406,-20.73828 -13.80859,-30.24219 -0.91016,-1.21484 -1.50391,-2.1914 -1.50391,-2.92968 0,-1.21485 1.80469,-2.6836 3.89453,-2.6836" id="path8" inkscape:connector-curvature="0"></path><path style="fill:#00943d;fill-opacity:1;fill-rule:evenodd;stroke:none" d="m 374.98047,217.42578 0.10547,-0.35937 c -0.21094,0.0781 -0.41407,0.14843 -0.62891,0.21875 -1.07812,0.46875 -2.30859,0.625 -3.5,0.89453 -0.82422,0.11718 -1.48828,0.76562 -2.42578,0.43359 -1.44922,0.60938 -2.98438,0.125 -4.44922,0.56641 -0.79687,-0.28907 -1.65625,-0.35157 -2.27734,-0.0937 l -4.11328,-1.00782 c -0.0625,0.0234 -0.13282,0.0234 -0.22657,-0.043 l 0.22657,0.043 c 0.043,-0.008 0.0742,-0.0352 0.10546,-0.043 0.043,-0.15625 0.10547,-0.39063 -0.0195,-0.5 -0.39843,-0.27344 -0.60547,0.16406 -0.80859,0.36328 l -3.57422,-0.9336 c 0.19922,-0.6914 1.25,0.082 1.44141,-0.60937 1.4375,-0.28125 2.8789,-1.47266 4.04687,-2.23828 3.92969,-2.42969 6.05078,-6.3086 10.80469,-7.375 3.90234,1.92968 8.07422,3.84765 12.72266,5.13281 -0.0234,0.082 0.0273,0.17578 0.082,0.26953 l 0.21484,0.0625 c -0.67969,-0.0937 -0.37891,0.80469 -0.83594,1.01563 -2.23437,1.46093 -4.26953,2.83984 -6.54297,3.74218 0.15235,0.0195 0.30469,0.10547 0.47266,0.0977 0.12891,0.11719 0.0352,0.42578 -0.13281,0.46094 2.2539,-0.39063 3.84375,-1.79297 5.76562,-2.6875 0.98828,-0.48438 0.86328,-3.72266 2.61719,-2.28125 l -0.46094,1.36328 c -1.36718,1.78125 -3.14453,3.04687 -4.77343,4.26172 -2.60938,1.70312 -5.03125,2.13281 -7.35157,4.15625 0.86719,-0.58203 1.76953,-0.92578 2.72266,-0.91407 1.01562,-0.48437 2.39062,-0.86328 3.28906,-1.53906 3.20703,-0.96094 5.62891,-3.94922 7.39453,-7.11328 0.77735,0.0469 1.33594,0.0273 1.79688,0.64063 -1.29297,1.79687 -2.6875,3.41015 -4.23047,4.64453 -2.25,1.55468 -4.89453,2.7539 -7.03125,4.66406 0.41016,0.0156 0.64844,-0.90234 1.15234,-0.67969 0.29688,-0.50781 1.21875,-0.92187 1.61328,-1.23047 0.57422,0.23047 1.10938,-0.87109 1.375,-0.0508 3.20704,-1.55078 5.95704,-4.03515 7.61719,-7.38281 l 2.63281,0.85156 -1.47656,2.15625 c -0.375,-0.66797 0.16406,-1.18359 0.2461,-2.0625 -0.31641,1.39453 -1.04297,2.02344 -1.89844,2.78516 -1.38281,2.4414 -3.85547,3.34765 -6.01563,5.09375 -1.7539,1.42969 -4.55859,0.94531 -5.3125,3.3789 4.30469,-3.48437 9.76172,-2.22265 12.28907,-7.3164 l 0.14843,0.043 c -0.70312,1.70312 -1.63281,3.60156 -2.72265,5.20312 1.20703,0.80469 0.79687,-1.10937 1.61328,-1.21875 1.59375,-2.29297 1.96094,-5.33203 3.27344,-8.02344 1.20703,-0.34765 2.21093,0.57813 3.34375,0.28907 1.72265,0.37109 2.18359,0.66797 3.48046,1.16015 4.15235,0.51172 8.51563,1.15625 12.42969,1.36328 l -0.0469,0.14844 0.23437,0.0586 c 0.58985,-0.4961 1.64453,-0.22266 2.4375,0.0664 0.48828,-0.60937 1.73438,0.0391 2.375,-0.27344 0.28516,0.13672 0.95703,0 0.83203,0.44922 0.79297,0.29297 1.23828,-0.17187 1.84766,-0.33593 1.95312,0.0977 3.95703,-0.52735 6,-0.40235 l 0.0508,-0.23828 c 1.23828,0.49219 2.14063,-1.07812 3.08984,0.0703 0.70313,-0.80078 1.875,-0.98828 2.82032,-1.23828 0.97265,-0.40625 1.45703,-1.26562 2.46875,-1.74219 -0.96875,-0.82421 -1.83203,-1.70703 -2.94532,-2.32812 -5.65625,2.05469 -12.57031,1.48828 -18.97656,0.79297 -1.23047,-0.40625 -2.64844,-0.76953 -3.70703,-0.38672 -4.08984,-1.31641 -8.28125,-1.10547 -11.63281,-2.46875 l 0.74219,-0.70703 c 1.32031,0.42187 1.34765,-1.39453 2.64843,-1.20703 -0.15625,-0.0391 -0.46875,-0.0391 -0.48047,-0.28516 l 0.13672,-0.0859 c -1.07422,0.28516 -2.03906,1.19532 -3.09375,1.28516 0.33203,-2.05859 2.03516,-2.17188 3.30469,-3.00781 0.41797,-0.38672 1.375,0.19922 1.70703,-0.45313 -0.51562,-0.1289 -0.80469,0.375 -1.19531,0.0195 1.66016,-1.1289 3.30469,-2.43359 4.10156,-4.4414 l -0.32812,-0.25 c -0.59766,0.17187 -0.5586,1.41406 -1.24219,1.32031 -1.82813,2.55859 -5.65234,4.03906 -7.80859,5.51953 l 0.40234,-0.0508 -0.0781,0.28125 1.42188,-0.51172 -0.72656,1.70703 c -0.64453,1.22266 -2.33985,0.45313 -3.34375,0.0312 0.57031,-0.59375 0.86328,-1.67187 1.32812,-2.46094 2.23438,-2.03906 4.98047,-3.62109 7.88672,-4.92578 0.57422,-0.0937 0.30078,-1.07031 0.97266,-0.89843 0.33984,-1.55079 1.77734,-2.98829 2.07422,-5.20704 -0.83985,-0.39453 0.004,-1.15234 -0.008,-1.64843 1.36328,-0.62891 -0.60156,-1.3086 0.4336,-2.44922 l -0.30078,-0.0625 -0.84766,2.48437 c -0.94531,0.25391 -0.42969,1.53516 -1.39453,1.85547 -0.6836,1.87891 -1.73828,3.08594 -3.28516,3.83203 -0.52344,0.44532 -0.64062,1.15235 -1.45703,0.9375 -1.73828,1.6836 -3.94141,3.00782 -5.41406,5.16797 -0.44922,1.02344 -0.8125,2.33203 -1.44531,3.15625 0.10156,-3.17969 1.98046,-4.82031 3.05859,-7.5039 2.31641,-2.35938 4.28125,-4.56641 6.55469,-7.01172 -2.9961,1.35937 -4.13672,5.42187 -7.33594,7.22265 -0.44922,0.44532 -0.89453,1.24219 -1.33594,1.61328 -0.1875,1.01954 -0.50781,2.17969 -1.28125,2.625 0.51563,-1.59375 0.44141,-4.40234 2.10156,-4.95703 0.80469,-1.76172 2.3125,-2.60547 3.41797,-3.96484 0.35938,-0.47266 0.9375,-0.82031 1.2461,-1.31641 0.60156,0.25391 0.63281,-0.21484 0.69922,-0.58984 -0.59375,0.41016 -1.31641,0.78906 -1.875,1.02734 -1.69141,1.51953 -2.66797,3.58203 -4.28907,5.125 -0.0156,-2.52734 -0.51953,-5.1914 -2.58593,-6.49218 0.13671,0.13281 -0.043,0.69531 0.45312,0.74609 2.98438,3.25781 0.92578,8.39453 -0.625,12.51172 l 0.93359,-0.17188 c 0.14063,1.19532 -0.87109,0.52344 -1.33984,0.8086 -0.30078,-0.0859 -0.83203,-0.13282 -0.55859,-0.5586 0.0937,-0.0586 0.17578,-0.11328 0.24609,-0.0977 l 1.90625,-5.67188 c -0.19141,-1.28515 -0.37109,-2.65234 -0.66406,-3.875 -0.98047,-1.08203 -0.66797,-3.0664 -2.27344,-3.55859 1.34375,1.17969 1.57422,3.21484 2.38672,4.89844 0.36719,0.34765 -0.29688,0.99609 0.26172,1.05859 -0.0312,0.64844 0.0976,1.33984 -0.375,1.87891 -0.1836,-0.21094 -0.043,-0.42579 0,-0.57422 l -0.29297,-0.082 C 386.87109,197.25 382.92187,195.15625 379.09766,193.5 l -0.1875,-0.46094 c -1.90625,-0.33203 -2.42969,-1.875 -3.42969,-3.11719 0.5664,0.80079 1.48047,2.9336 2.46484,4.01172 2.66016,3.57813 3.78906,7.48828 2.66797,12.125 -2.05469,0.20703 -0.24219,-1.69922 -0.57031,-2.52343 -0.53516,-0.64063 0.23828,-2.00782 -0.81641,-2.26954 -2.10156,-6.07031 -6.65234,-10.04296 -12.08203,-13.69921 -0.61719,-0.0664 -1.24219,-0.40235 -1.52734,-0.80079 -1.75391,-0.54296 -2.53125,-1.73828 -4.42578,-2.0625 -0.32422,-0.8164 -1.75391,-0.86328 -2.29688,-1.5039 -6.39453,-2.73828 -13.17187,-5.5 -16.31641,-11.33985 -0.37109,0.48047 0.66016,0.5 0.1836,1.03516 2.51953,4.35938 6.22656,7.39063 11.0625,9.39063 l 0.0547,0.34375 c 2.17578,0.80859 3.91796,1.67187 6.07031,2.5 0.32812,0.8164 1.6914,0.76171 2.14453,1.45703 2.44141,0.63672 3.94531,2.09765 6.10547,2.91406 0.21484,0.62891 1.18359,0.62891 1.30078,1.32031 l 0.92578,0.40625 c 4.24609,3.91016 8.45703,7.89453 8.44922,14.21485 -1.14453,0.12109 -2.33984,-0.69141 -2.92969,-1.16407 l -5.92578,-1.88281 c -1.05078,-0.77344 -2.99609,-0.95312 -3.91016,-1.93359 -2.64062,-0.51953 -4.30468,-1.94532 -6.80468,-2.67969 -1.38672,-0.77734 -2.42578,-1.60938 -4.01172,-2.19531 -0.47266,-0.86719 -1.99219,-0.85157 -2.58203,-1.58985 -2.98828,-1.26562 -5.21485,-3.25781 -8.06641,-4.73437 0.0742,-1.37891 0.96875,-1.72656 1.23438,-2.97266 0.41406,-2.35547 -0.49219,-4.8125 -0.71875,-6.27344 -0.32422,1.72657 0.78515,2.58594 0.39453,4.29688 0.5625,1.38672 -0.34766,3.53125 -1.19922,4.87109 -0.25781,-0.22656 -0.89063,0.0117 -0.72656,-0.51953 -3.20704,-0.5039 0.5039,-4.14062 -0.66016,-5.92187 0.51172,-1.26563 -0.0117,-2.23047 -0.0391,-3.30469 0.0273,-0.64453 -0.2461,-1.375 -0.0352,-1.89453 -0.375,-2.07813 -0.57031,-3.94531 -0.93359,-6.00391 -0.28907,2.13672 0.35937,4.36719 0.53906,6.3125 -0.0977,0.0547 -0.20703,0.17969 -0.33984,0.0742 0.41406,1.08203 0.38671,2.31641 0.48437,3.40625 -0.67187,2.12891 0.20703,4.08984 -1.19531,6.01953 -0.82031,-0.20312 -1.0625,-0.76953 -1.67188,-1.17578 1.34375,-3.67578 1.16016,-7.58594 0.60938,-9.875 -0.0937,-0.51953 -0.875,-1.45703 -0.24219,-2.28125 -0.11719,0.13281 -0.35156,0.0742 -0.48437,0.0352 -0.73047,-2.2461 -1.96094,-4.125 -1.72657,-6.69532 -0.125,0.46485 -0.11328,1.03516 -0.45703,1.35157 l -0.28906,-0.0703 c 0.28516,0.98047 -0.35938,2.45704 0.0859,3.39844 -0.82422,1.82813 0.89843,2.78906 0.32422,4.27735 l -0.0781,-0.0234 0.22656,0.0586 c 0.30078,1.23047 0.30078,1.47656 0.45703,2.92188 0.39454,1.74609 0.17969,3.66015 -0.48046,5.46484 -0.375,-0.10156 -0.65235,-0.25391 -0.91016,-0.48437 0.99609,-4.4336 -0.28516,-7.8125 -1.67969,-11.38282 -1.60937,-1.32422 -1.57422,-3.77734 -1.64453,-5.76562 0.0469,0.91406 -0.75781,2.10156 -0.25391,2.88672 -0.48046,0.86328 -0.0273,1.80078 -0.26171,2.32422 -0.24219,-1.23438 -1.08985,-2.26172 -1.08985,-3.5625 -0.082,0.21093 -0.20703,0.39453 -0.41797,0.45312 0.008,-2.05859 -1.36718,-3.65234 -0.85156,-5.82422 -0.73828,1.53906 0.375,2.65235 -0.0352,3.86328 l -0.4414,-0.12109 c -0.21094,-1.53516 -1.45313,-2.76953 -0.70313,-4.625 l -0.21875,-0.0586 c -1.95703,3.60156 -0.36718,7.88281 0.60157,11.51171 l 0.52343,-0.10937 c -0.0898,0.87891 0.21875,1.44531 0.28907,2.38281 0.74609,0.1836 -0.10157,1.19922 0.60156,1.54297 l 0.1914,-0.68359 0.21875,0.0586 c 0.15235,1.43359 1.10157,2.91797 0.71485,4.29297 -1.41406,-0.35938 -2.09766,-1.03516 -3.30078,-1.58984 0.66015,-2.0625 -0.1211,-3.82422 -0.39453,-5.70313 -0.46875,-3.16797 -2,-5.36719 -3.51954,-7.91406 l 0.10938,-0.38672 -0.29688,-0.0664 c 0.21875,-1.34765 -0.32031,-2.30859 -0.29687,-3.52343 -0.40625,1.4414 -0.0234,2.36328 -0.48438,3.73046 0.58594,0.22657 0.26563,1.05469 0.10547,1.33985 -0.93359,-1.23047 -0.97265,-3.04688 -0.84765,-4.66797 -1.5625,3.62109 1.32812,5.53516 2.0664,8.27344 0.32422,1.40234 0.57032,3.10937 0.89063,4.51172 -0.20313,1.00781 0.75781,1.59375 -0.0625,2.53906 -2.53906,-0.0156 -1.26953,-2.88672 -1.77735,-3.92578 -0.19531,-0.71094 -0.72265,-1.41797 -0.84765,-2.10547 -0.2461,-1.96875 -1.04297,-3.07813 -1.0586,-5.05469 -0.67578,-1.82812 -1.35546,-2.82031 -2.32812,-4.47656 -0.89063,-0.22656 -1.71875,-0.6875 -2.21094,-1.15235 l -2.76172,-0.96093 c -2.27734,-1.51563 -6.21484,-2.53125 -8.96093,-2.34766 -4.0586,0.25781 -8.1875,0.23828 -11.75,2.19531 -3.86719,1.03907 -6.71485,4.08203 -9.92188,6.20703 -2.19531,0.7461 -0.004,3.19922 -1.56641,4.76172 0.16407,0.29688 0.13282,0.94922 -0.39843,0.87891 -0.17188,0.61719 -1.17188,1.34375 -0.36719,1.88672 -1.01172,1.62109 1.07422,1.01953 1.05859,2.16797 1.04297,0.27343 1.48047,1.53906 1.9961,2.33593 2.26172,1.56641 4.32031,3.01172 6.66797,4.54297 l -0.0391,0.14063 c 0.78907,0.0547 1.30078,0.5039 1.94141,0.76562 0.96484,0.82032 3.21875,-0.40234 3.20312,1.32422 0.88282,-0.0195 1.50782,0.3086 2.17188,-0.33984 0.37109,-0.22656 0.84766,0.0586 0.96484,0.5 -0.13281,1.35937 2.06641,0.87109 2.30078,2.07812 0.44141,0.3711 1.24219,0.65625 1.70704,0.375 2.25781,1.32813 4.57421,1.59766 7.02343,1.08985 2.17578,-1.24219 5.28907,0.15234 7.5625,-1.47266 0.8711,0.55859 2.07032,-1.43359 2.07032,0.28516 -0.22657,0.19922 -0.44141,0.13281 -0.62891,0.25 -0.98828,1.23047 -1.54297,3.22656 -2.30859,4.58593 0.34375,1.88672 -1.125,3.15235 -1.96875,4.5 0.42578,-0.38671 1.24609,-0.17968 1.35546,-1.1289 2.19141,-1.64453 2.60938,-5.14844 5.01563,-6.66406 1.26562,-0.25391 2.08984,-2.33985 3.37891,-2.40235 l -1.61719,2.1211 c 0.73437,0.1914 -0.0391,0.96484 -0.3086,1.07031 -1.24609,3.61719 -4.10156,5.91797 -6.91015,7.41406 l -0.35938,-0.10547 c 0.0274,0.5 -0.45703,0.46094 -0.79687,0.53906 l 0.45312,0.11719 c 0.33203,-0.0781 0.85547,0.0508 1.01172,-0.48437 1.97266,0.60937 3.24219,-1.94532 4.65235,-3.05469 0.8164,-0.0352 0.48828,-1.4375 1.28906,-1.47266 0.48047,-1.4375 1.18359,-2.24218 1.98828,-3.43359 2.17578,-0.66016 4.46875,-3.1875 7.375,-3.91016 0.83594,0.13672 1.09375,0.6211 1.67578,1.10547 -1.87109,0.98438 -4.00391,1.2461 -5.53516,2.4961 -0.875,-0.3086 -0.83984,1.25781 -1.71093,0.45312 -3.07813,1.58203 -4.05078,5.60938 -6.51172,7.91406 -1.42969,0.28907 -2.50391,1.32422 -3.84766,1.55078 l -0.0976,0.38672 0.36328,0.0898 c 0.5,-0.6836 0.36328,0.42578 0.96875,0.25781 0.78125,-1.12109 2.52734,-0.82031 3.42968,-2.0625 1.33204,-1.38281 1.9961,-4.32813 4.1211,-3.94141 0.51562,0.12891 0.89453,-0.67187 0.70312,-1.1289 0.84375,-1.00782 2.30078,-1.1211 3.09375,-1.32813 -0.70703,1.04297 -2.01953,1.76563 -2.25,3.4375 -1.63672,1.63672 -1.47656,5.625 -3.40234,6.51563 2.03125,-0.69922 2.03125,-3.57813 2.96094,-5.47266 0.16406,-0.0469 0.30468,-0.24609 0.51562,-0.11719 0.44922,-0.78906 0.5625,-2.07812 1.38281,-2.42578 1.04297,-3.1914 4.70313,-2.89062 6.44532,-5.15234 -2.32032,1.21094 -4.65235,2.15234 -6.9336,3.20703 -0.80859,-0.53516 -0.85156,0.19141 -1.57422,0.49609 -0.27343,-0.15625 -0.60937,-0.082 -0.77343,-0.36718 1.88672,-1.07032 3.7539,-2.0586 5.6875,-3.28125 l 0.36718,0.0898 c 0.51172,-0.68359 1.82813,-0.84375 2.83594,-1.3125 0.875,-0.59375 1.26563,0.57812 1.94141,1 -1.16797,0.76953 -2.39844,1.76172 -3.50781,2.29297 -2.06641,2.33594 -5.72657,4.34375 -6.14454,7.84765 l 0.14063,0.0352 c 0.56641,-0.83203 0.62109,-1.64453 1.35547,-2.27734 1.83594,-2.31641 3.78515,-4.19141 5.83594,-5.54297 l -0.0234,0.0742 0.43359,-0.13282 -0.0898,-0.51562 c 0.91406,0.40625 1.45703,-0.67969 2.5625,-0.64453 l 0.17187,0.53125 c -2.30859,1.125 -3.63672,3.08203 -5.38281,4.76562 -1.34375,4.25782 -5.24609,5.70703 -8.43359,7.7461 0.66797,0.17968 0.79297,-0.28516 1.33203,-0.22266 1.64453,0.0977 2.77734,-1.41016 4.03906,-1.91016 0.44922,-0.78906 1.01953,-1.125 1.58203,-1.71875 0.10156,-0.39062 0.44531,-1.03906 0.77735,-1.36328 1.51953,-2.64453 3.6289,-5.05078 6.19531,-6.27734 l 0.10547,0.1875 c -1.61328,1.80078 -3.34766,3.73828 -4.91407,5.38672 -0.16015,1.43359 -1.62109,1.53906 -1.67187,2.84765 -0.62891,0.58204 -1.29297,1.22657 -2.06641,1.6836 -0.875,2.07031 -2.99218,1.93359 -4.52734,2.60547 l 0.79687,0.53515 c 2.77735,-0.51562 4.95313,-2.90625 6.85157,-5.44922 -0.63672,-0.57812 0.96875,-0.65625 0.64453,-1.48437 1.90234,-0.8125 2.40625,-3.80469 4.26172,-3.90234 -0.35547,0.73046 -0.625,1.73828 -1.15235,2.17187 -1.55078,5.02344 -6.27343,6.82813 -9.64453,9.81641 l 0.11328,0.1875 c 0.66407,-0.72657 1.91797,0.5 2.35547,-0.78125 1.82031,0.30859 3.9961,0.79687 5.05469,2.39453 4.72266,2.78125 8.44141,6.24219 13.28906,8.82422 5.3086,2.35937 11.64844,4.44922 17.2461,4.33203 3.76171,0.24219 7.23828,-0.57422 10.0664,-2.13672 0.27735,-0.16797 0.32422,-0.89453 0.84766,-0.51172 z m -47.78125,-41.77344 c -0.11719,-2.99218 -1.76172,-5.0625 -1.87891,-8.05859 1.63672,3.46875 3.16406,6.01172 2.94531,9.98047 l -0.35156,1.23047 c -1.49219,-0.3125 0.25391,-2.31641 -0.71484,-3.15235 z m 49.52344,41.23438 c -0.16407,0.043 -0.51563,0.44531 -0.77344,0.21484 0.34375,0.17578 0.4414,-0.46094 0.77344,-0.21484 z m -39.29688,-24.81641 c 0.35156,0.16406 -0.25391,0.33203 -0.3125,0.56641 l -0.15234,-0.0391 z m -2.42969,-6.40625 -0.625,-0.32422 c 1.48047,0.39063 1.98047,1.75391 3.3086,2.09766 -0.125,1.03906 1.6875,0.77344 2.0039,1.67578 l 0.375,0.0977 c -0.75,0.38672 -1.7539,1.10547 -2.20703,1.64453 -0.42187,0.0508 -0.33203,-0.25 -0.42187,-0.51172 0.35937,-0.41016 1.60156,-0.082 1.45312,-0.94531 l -1.65234,-0.34766 c 0.82812,-0.10937 0.082,-0.5625 0.34375,-1.23047 -0.13281,0.21094 -0.41406,0.0586 -0.5586,0.0234 -0.39843,-0.84766 -1.5039,-1.21484 -2.01953,-2.17969 z m -34.40234,-3.21875 c 0.0664,-0.82031 0.86719,-0.26953 1.16016,-1.03125 1.75781,-1.1875 3.2539,-3.42187 5.13281,-4.73828 0.53125,-0.76172 1.52734,-0.91797 2.16406,-1.48828 0.14844,0.0391 0.41016,0.26562 0.55859,-0.0156 l 0.10157,-0.38281 c 0.46484,-0.21484 1.03515,-0.23828 1.32422,-0.72265 0.008,0.24609 0.24609,0.21484 0.39843,0.26171 -0.51562,0.6875 -1.46875,1.01172 -2.16406,1.49219 -0.58594,1.2461 -1.91406,0.89844 -2.85156,1.96485 -1.80078,1.34375 -3.61719,3.57812 -5.82422,4.66015 z m 8.34766,-4.32031 c 1.53125,-0.91406 2.78515,-2.56641 4.58984,-2.75391 -4.82031,1.85938 -7.38672,7.69532 -12.58594,8.96094 -0.40625,0.30469 -0.43359,-0.19531 -0.63281,-0.32812 3.07031,-0.75391 6.36719,-3.42969 8.62891,-5.87891 z m 15.52734,9.06641 c 0.29687,-0.75 0.90234,-0.91407 1.56641,-1.07032 z m 1.47656,-2.26954 c 0.27735,-0.22265 0.56641,-0.4375 0.84766,-0.66015 -0.28125,0.26562 -0.57031,0.47656 -0.84766,0.66015 -2.46875,1.89844 -4.95312,3.98438 -6.39062,7.07813 -0.47657,0.28516 -0.71485,1.12891 -1.10938,1.67187 0.33985,-1.47265 1.19922,-3.69921 2.2461,-4.91015 1.28125,-2.83203 3.26562,-2.57813 5.2539,-3.83985 z m -7.32422,2.14063 c -0.0117,-0.81641 1.88672,-1.65625 3.14453,-2.14063 l 0.125,-0.46093 c 0.15235,0.0312 0.40235,0.26953 0.5625,-0.0156 l 0.0977,-0.38672 c 0.98047,0.25391 1.91406,-1.14453 2.92188,-1.03906 0.73046,-0.30859 1.13281,-1.19141 1.91796,-0.32812 -2.1289,1.66796 -4.8789,3.25 -7.40625,4.07421 -0.20312,-0.70703 -0.76562,0.20313 -1.32421,0.14844 z m -3.625,0.20703 c 2.64063,-1.78125 5.53516,-4.47656 8.92578,-5.8125 0.66016,-0.65234 1.33204,0.34766 2.07422,0.54297 -0.59375,0.42578 -1.66797,0.54297 -2.28906,1.05078 -1.83984,0.66797 -3.51172,2.11328 -5.53906,2.49609 -0.42188,1.53125 -1.33985,1.70704 -2.71485,1.50782 -0.10156,0.0625 -0.19921,0.10937 -0.25,0.26172 z m -7.02343,0.38672 c 1.125,-1.51953 2.75781,-1.91797 3.95703,-2.83594 0.86718,-1.66015 2.89843,-1.78906 4.11328,-3.03906 0.55469,0.30859 1.00781,0.0977 1.15234,-0.42969 -0.0351,-0.42969 0.3086,-0.2539 0.4961,-0.37109 0.69531,-0.23047 1.35156,-0.55078 2.21875,-0.57422 -1.22657,0.75391 -2.375,0.86719 -3.3125,1.9375 -2.875,1.78125 -5.35938,2.95703 -8.33985,5.38672 z m -2.03907,-0.70703 c 1.15625,-2.41016 3.64453,-3.40235 5.625,-5.35156 1.04297,-1.12891 2.27735,-1.62891 3.60157,-2.10157 0.94531,-0.8164 2.0039,-1.44531 3.28515,-1.51562 -0.15234,0.85937 -1.6875,0.9375 -2.35156,1.59765 -3.01172,1.41797 -6.39453,4.40625 -9.53516,7.13672 l -0.10937,0.38282 z m -2.03906,-0.36719 c 1.59375,-3.44531 5.52734,-5.04297 7.79297,-7.99219 l 3.47266,-2.21875 1.4375,0.54297 c -0.21875,0.51172 -0.63282,0.57031 -1.17188,0.51172 -4.39453,1.24219 -8.18359,5.68359 -11.02344,9.30078 z m -9.36328,-4.09375 -0.26563,-0.48437 c 5.41797,-0.63282 9.26563,-4.72266 12.69532,-9.01172 0.58203,-0.0977 1.20312,0.23828 1.86718,0.40234 -0.0469,0.48828 -0.92968,0.49609 -1.21484,0.67969 -5.01953,2.05078 -7.23828,8.8789 -13.08203,8.41406 z m -2.10938,-1.53906 c 0.76172,-0.45703 1.72657,-0.77735 2.6211,-1.125 3.67969,-2.40625 7.13672,-3.96094 9.78515,-7.47656 l 1.33594,0.35546 c -3.84375,2.35938 -8.22656,6.98047 -12.29297,8.71875 -0.72656,0.625 -0.84765,-0.39062 -1.44922,-0.47265 z m -3.35937,-2.51563 -0.0664,0.22657 -0.35547,-0.0937 0.0469,-0.23438 z m -3.55859,-5.53906 c -0.76172,0.21484 -1.4375,1.76172 -2.19922,0.49609 0.40625,-0.88281 1.40234,0.11719 1.90625,-0.57031 z m 1.91406,-0.81641 -1.13672,0.60547 0.75781,-0.70312 z m 1.6289,-3.28906 c -0.1914,0.69531 -1.25781,-0.0703 -1.45312,0.62891 -1.05859,-0.19531 -2.29688,0.79297 -2.64453,-0.20703 1.16015,0.38672 1.77734,-0.92969 2.95312,-0.29688 0.0859,-0.30469 0.70703,-0.30469 1.14453,-0.125 z m 1.69532,1.60938 c -0.77344,1.03125 -2.13672,1.08984 -3.09375,1.41015 0.71093,-1.12109 1.90234,-1.14843 3.09375,-1.41015 z m 3.41797,-0.0117 c -3.10157,1.98828 -5.90235,4.37109 -9.15235,5.17969 -0.0976,-0.52344 0.88281,-0.59766 1.35156,-0.55079 1.83985,-2.08203 4.96485,-2.40234 6.82422,-4.55468 0.50782,0.46484 0.47657,-0.52344 0.97657,-0.0742 z m 1.85156,0.23828 c 0.4414,0.11719 1.10547,0.28906 1.41406,0.0352 -0.14062,0.78906 -1.40234,1.03515 -2.02344,1.53515 l -0.12109,0.46094 c -2.44141,1.34375 -4.90625,3.07031 -7.16797,4.625 -0.51953,-0.13672 -1.28906,0.32422 -1.55469,-0.41406 1.82422,-0.58985 4.01563,-1.90625 5.86328,-3.64063 0.15235,0.0391 0.42579,0.1875 0.55469,-0.0234 0.64844,-1.14843 2.42188,-1.2539 3.03516,-2.57812 z M 290.25,166.40234 c 0.34766,0.4961 1.02734,0.67188 1.25781,1.24219 -1.24219,-0.66797 -3.03515,-1.95703 -4.92969,-1.70703 1.05079,-0.94922 2.46875,0.5625 3.67188,0.46484 z m 10.10937,4.86328 c -2.6914,2.57813 -5.73046,4.36329 -8.67968,6.01954 -0.36328,0.23437 -0.74219,0.45312 -1.11328,0.6289 0.37109,-0.20703 0.74218,-0.41406 1.11328,-0.6289 2.68359,-1.70313 4.91406,-4.53516 7.64062,-6.28516 z m 1.28125,0.25391 2.36719,0.625 c -4.12109,2.53516 -8.39844,5.61719 -12.5664,8.05859 -0.26954,-0.22656 -0.85938,-0.38671 -0.75391,-0.76562 1.90234,-0.25 3.23437,-1.87891 5.19141,-2.35156 2.0664,-1.4336 4.67578,-2.80469 5.76171,-5.56641 z m -8.09765,-4.33984 0.71094,0.27343 c -2.27735,0.23047 -2.63282,-2.83203 -5.35547,-2.71875 l -0.30078,-0.0742 0.55078,-0.27344 c 1.42187,0.625 3.1914,1.41406 4.39453,2.79297 z m 0.48047,-2.25782 1.21484,1.64063 -0.28516,0.98437 c -0.35546,-0.41796 -0.51171,-1.85937 -1.34375,-2.3125 -0.76171,-0.69531 -1.83593,-1.39453 -3.14062,-1.57031 1.28125,-0.57422 2.50391,0.73438 3.55469,1.25781 z m 2.60547,-4.25781 c 2.11718,1.875 4.51562,4.0625 4.41796,7.25 l -0.30078,-0.0781 c 0.47657,-0.78516 -0.17968,-1.60547 -0.49218,-2.1875 0.0859,-0.89063 -0.78907,-1.76563 -1.32422,-2.40235 -0.73828,-0.76953 -1.53516,-1.63672 -2.73047,-2.19531 z m 26.30078,11.10938 c -0.0352,-0.0508 -0.0859,-0.10157 -0.17969,-0.0859 0.10547,-0.0352 0.16016,0.0156 0.17969,0.0859 0.0195,0.0508 0.0508,0.10156 0.0703,0.14843 -0.21484,0.55469 -0.0117,0.0781 -0.0703,-0.14843 z m -3.0625,2.53906 c -3,0.77734 -1.23047,-2.78906 -2.72266,-3.67188 0.31641,-0.82031 -0.42578,-0.69531 -0.13281,-1.51171 -0.60156,-0.66016 -0.21094,-1.78907 -1.05469,-2.50391 0.89844,-0.91406 -0.625,-1.14453 -0.16016,-2.26172 l -0.30078,-0.082 c -0.0195,-1.07422 -1,-2.0625 -1.76172,-2.83203 l -1.65234,-1.4336 0.22656,-0.26562 c 1.19141,0.89062 3.28907,1.02344 4.28907,2.03125 3.25,0.59766 3.46093,3.28516 4.67187,5.49609 0.21875,1.21094 0.32031,2.55469 0.80469,3.65625 0.32031,0.58203 0.10547,1.35547 0.66015,1.90625 0.17969,-0.0312 0.13282,-0.20703 0.19141,-0.36328 0.94531,1.15235 1.00781,2.64453 1.1875,4.01172 l -1.60156,-0.25391 c -0.42578,-0.76562 -1.45313,-1.03906 -2.41797,-1.28515 0.0586,-0.22656 -0.12891,-0.44531 -0.22656,-0.63672 z m -4.99219,-3.77734 0.19531,-0.6875 c 0.008,1.07812 1.40625,2.10156 1.0586,3.0664 -2.03125,0.13281 -0.32422,-1.72265 -1.25391,-2.3789 z m -3.26563,0.52343 c 0.27735,-1.16797 0.375,-2.05859 0.0274,-3.03906 0.25781,-1.94922 -0.41016,-3.39844 -0.82813,-5.08984 -0.14453,-1.32813 -0.71484,-2.39844 -1.68359,-3.27735 l 0.14062,-0.36328 c 2.27735,0.85156 1.97266,3.37891 2.57422,5.23047 -0.16797,1.28906 1.01563,2.25391 0.15625,3.63281 0.25391,1.02344 0.5625,1.91407 0.0274,3.07813 z m 19.27735,-2.95703 -0.32813,-0.77734 c 0.26563,0.19922 0.3125,0.48828 0.32813,0.77734 l 0.43359,1.0586 c -0.47656,-0.17188 -0.41797,-0.61719 -0.43359,-1.0586 z m -1.17188,2.86328 c -0.69922,-1.83593 -0.55468,-4.33984 -1.13672,-6.22265 l 0.23047,-0.83594 c -0.45703,1.93359 1.97266,4.28906 0.90625,7.05859 z m 1.17969,-1.01953 c -0.0234,-0.0625 -0.0703,-0.13281 -0.13281,-0.18359 0.0742,0.0273 0.10937,0.10547 0.13281,0.18359 0.12109,0.29297 0.0156,0.6875 0.29297,0.83594 -0.35547,-0.0391 -0.20703,-0.52344 -0.29297,-0.83594 z m 2.05078,3.66797 -0.1914,0.11719 c 1.42578,1.6914 2.10546,5.5664 1.67968,8.82031 -1.94922,-0.16797 -0.9375,-1.80078 -1.42578,-2.83594 -0.38281,-1.8164 -1.05469,-5.1289 -0.88672,-5.73437 -0.24218,0.0234 -0.17578,0.35937 -0.28906,0.48828 0.23047,-0.51563 -0.55469,-0.87891 0.16016,-1.42969 l -0.29688,-0.0664 c 0.39063,-0.56641 -0.21094,-0.97266 0.082,-1.71094 0.57813,0.47265 0.8086,1.60937 1.16797,2.35156 z m 2.61328,9.74219 c 0.75,-2.6875 -0.86718,-4.59766 -0.67968,-7.00391 -0.33985,-1.33594 -0.95704,-1.98437 -1.03125,-3.99219 1.6875,3.08985 2.72656,6.23438 2.39843,9.94141 0.48828,0.28906 -0.0742,0.88281 -0.0391,1.29688 -0.21875,-0.0586 -0.40234,-0.26563 -0.64844,-0.24219 z M 309.19922,170.375 c 0.17969,-1.1875 0.17969,-2.09375 -0.26563,-3.03516 0.0703,-1.95703 -0.7539,-3.32031 -1.33593,-4.95703 -0.26172,-1.29687 -0.9375,-2.29687 -2,-3.07422 l 0.10546,-0.37109 c 2.36719,0.61328 2.30469,3.14453 3.07813,4.91016 -0.0352,1.3125 1.24219,2.125 0.51562,3.58984 0.35938,0.99609 0.76172,1.84375 0.33985,3.04687 z m -2.4336,-0.97656 c 0.27344,-0.98828 0.15235,-2.01172 0.10547,-2.92578 -0.55468,-2.61719 -1.95703,-5.28516 -3.96093,-6.96094 0.43359,0.20312 0.64062,-0.57422 1.22265,-0.082 0.44531,0.34765 0.26953,1.29687 1.25,1.22265 1.0586,2.17188 2.00781,4.8086 2.0625,7.45313 0.83594,0.13672 0.17969,1.03515 0.13281,1.51172 z m -1.4414,-0.52735 -0.23047,-0.0703 c -0.004,-0.81641 -0.34766,-1.31641 -0.0859,-2.23828 -0.86719,-2.36328 -1.8789,-4.6875 -3.89062,-6.03906 l -0.47266,-0.85547 c 0.35156,-0.16016 0.6875,0.0937 1.03516,0.27344 0.80859,1.10546 2.24218,2.21875 2.9414,3.71875 -0.17187,0.36328 0.0664,0.59765 0.0586,0.93359 l 0.30078,0.0664 c 0.0625,0.91406 -0.0234,1.80859 0.40625,2.5 -0.32813,0.64843 0.25,1.1289 -0.0625,1.71093 z m 33.83203,16.98828 c -1.01172,-2.40625 0.71875,-5.73437 -0.60547,-8.14062 -0.10937,-0.44531 -0.14844,-1.43359 -0.46484,-2.01953 -0.21094,-1.4375 -0.41016,-2.87891 -0.41407,-4.32031 -0.11718,-0.37891 -0.21484,-0.76954 -0.24218,-1.16797 -0.15625,-0.44922 -0.004,-1.00391 0.1289,-1.46875 -0.1289,0.51172 -0.16015,1.0039 -0.1289,1.46875 0.043,0.14062 0.14062,0.26172 0.25,0.37109 -0.008,0.26172 -0.008,0.53516 -0.008,0.79688 0.53125,1.67578 1.77735,3.125 2.07422,4.93359 l -0.0859,0.0508 c 0.65234,2.47656 0.79687,6.53906 -0.50391,9.49609 z m -35.95703,-17.05468 c -0.41797,0.043 -0.16016,-0.28907 -0.24219,-0.5586 -0.48437,-3.42187 -2.00391,-5.94531 -4.62891,-7.94922 l 0.0391,-0.15625 c 2,1.10157 3.33593,2.59766 4.32031,4.5 0,1.39844 0.66797,2.71875 0.51172,4.16407 z m 33.79297,17.14062 -0.54297,-0.63281 0.62109,0.33203 z m 1.25781,0.90235 -0.39844,-0.60157 c 0.22266,0.0586 0.22266,0.39063 0.47656,0.28907 z m -10.62109,-4.98829 -0.61719,-0.64843 c -0.0664,-0.0312 -0.10156,-0.0742 -0.13672,-0.1211 l 0.13672,0.1211 c 0.29297,0.16015 0.92578,0.0273 0.61719,0.64843 z m -28.50782,-14.125 c -0.0156,-0.82812 -0.6875,-1.82421 -1.17578,-2.68359 -0.66406,-1.01172 -1.57812,-1.98828 -2.60547,-2.91406 1.72266,0.3789 2.05469,1.77344 3.23828,2.65234 -0.21093,0.78125 0.40235,0.84766 0.61719,1.48828 -0.16797,0.61719 0.65625,0.82813 0.29297,1.5586 z m -2.07422,0.0391 c -0.1875,-0.21094 -0.2539,-1.13672 -0.41406,-1.42188 -0.5664,-1.39062 -1.83203,-1.96484 -2.48437,-3.04297 1.66797,0.85157 2.59765,2.07422 3.3164,3.50391 z m 88.19532,39.67187 c -0.66407,0.0703 -2.03125,-0.45703 -1.65235,-0.93359 0.54688,-1.41797 1.77344,-3.81641 0.66407,-5.00781 0.0586,0.35546 -0.0312,1.30468 -0.0625,1.96875 l -1.10938,3.40234 c -0.59766,-0.40234 -2.03516,-0.11719 -1.67187,-1.09766 1.02343,-4.57812 -0.63672,-8.30859 -2.79688,-11.67187 2.86328,2.3125 7.8125,3.35937 7.69531,7.76953 0.70313,1.75391 -0.082,4.01562 -1.0664,5.57031 z m 12.07031,-7.95312 -0.26563,0.33593 -0.21484,-0.043 z m -7.61719,8.79297 -0.37109,-0.10547 c 0.83203,-2.08594 2.11328,-4.13282 3.64453,-5.38282 l -0.44531,-0.10937 c 0.53906,-0.51953 1.26953,-0.82422 1.57812,-1.40625 1.7461,-1.67578 4.60547,-0.85156 5.61328,-3.875 0.96485,-0.57422 1.21094,-2.06641 2.46485,-1.98828 -0.73828,0.6289 -0.69141,2.21094 -1.39453,3.00781 -3.42188,3.13672 -8.5,4.52734 -10.5625,9.08984 -0.52344,-0.14062 -0.29297,0.4961 -0.52735,0.76954 z m -27.5039,-6.6211 c -1.05469,-0.18359 -1.17188,-1.21094 -1.80079,-1.78125 l -0.27343,0.65235 -1.23047,-0.47266 c 0.10937,-0.63281 -0.87891,-0.8125 -1.0625,-1.26953 -1.59375,0.57031 -2.5,-1.30469 -3.76563,-1.88672 -2.72656,-1.61328 -5.52734,-3.58594 -8.3789,-5.32031 -1.26172,-0.65625 -1.85547,-1.63672 -3.28516,-1.92969 L 342.5,189.27734 c 3.65234,2.02735 6.96094,4.44532 11.00391,6.16407 0.38281,0.59765 1.76562,0.54687 2.01953,1.35156 1.66797,0.52344 2.38672,1.6875 4.20703,2.0039 0.63672,1.14454 2.91015,0.67188 3.61719,1.85157 2.83984,0.66015 4.52734,2.33593 7.48046,2.85937 -0.0508,0.15625 0.004,0.25 0.0781,0.26953 1.03125,-0.55468 1.32812,0.67188 2.39844,0.78907 3.30859,0.45312 5.5,2.83593 9.23047,3.14843 l 0.58203,0.48828 c 0.22265,-0.51953 0.78515,0.0391 1.19531,-0.0195 -0.12109,0.71094 0.41016,-0.0547 0.66406,0.17578 3.08594,0.89063 5.88672,1.45313 8.78125,1.88282 l 0.043,-0.14844 0.42969,0.44531 c 0.67187,-0.40625 1.6914,0.1875 2.45703,0.30469 -0.043,0.73047 0.49219,-0.0391 0.67187,0.17969 l 5.33985,1.05859 0.14844,-0.20703 c 2.78906,0.5625 5.125,0.44141 7.86718,1.16016 l 0.23047,-0.26563 c 2.15625,0.88281 4.24219,-0.38281 6.42578,0.92578 0.3125,0 0.25391,-0.33594 0.33594,-0.65234 1.92578,1.41015 3.57813,0.0352 5.40625,0.26953 0.48828,-0.60938 1.50391,0.0625 1.98828,-0.55078 1.3125,-0.14453 2.57422,-0.39453 4.02735,-0.4336 l 0.34375,0.75391 c -0.60547,1.31641 -3.10157,-0.88672 -2.9336,1.12109 l -1.72265,0.13672 v 0.57032 c -1.10157,1.43359 -2.35547,-2.09375 -2.19532,0.49218 -1.14843,0.6875 -3.29687,-1.60156 -3.27734,0.0469 -0.49219,0.625 -1.43359,0.0391 -1.91406,-0.25781 0.008,-0.32032 -0.38672,-0.59375 -0.70703,-0.58594 -0.73829,0.625 0.71093,0.83984 -0.0625,1.63281 -0.0312,-1.33594 -1.69141,-0.44922 -2.52344,-1.23437 l 0.0937,-0.31641 c 0,-0.32031 -0.375,-0.0977 -0.5625,0.0156 -0.3711,0.48829 0.33984,0.50391 0.20312,0.97266 -0.12109,-0.12109 -1.02343,0.53906 -1.16797,-0.0664 l -0.043,0.14844 c -0.78125,-0.043 -0.92188,-1.80859 -1.89454,-0.91015 0.0508,0.0977 0.0977,0.20312 0.27735,0.16015 l -0.0899,0.3086 -1.77734,-0.46875 c 0.14063,-0.21094 -0.0664,-0.33985 -0.11719,-0.4375 -0.14453,-0.043 -0.35547,-0.17579 -0.46484,-0.043 0.28906,0.40625 -0.0156,1.23437 0.64453,1.40625 -0.58984,0.40625 -1.44922,-0.21875 -2.22266,-0.32813 l -1.07812,-1.28125 c -0.53125,0.52344 0.44141,1.01172 -0.125,1.61328 -0.79688,-0.53125 -2.02734,-1.26953 -2.91797,-1.5039 l 0.40234,0.84765 -0.36328,0.14844 c 0.0859,-0.87891 -1.33593,-0.91797 -2.05859,-1.43359 0.0195,-0.0859 0.16016,-0.29688 0.0273,-0.41016 -0.14843,-0.0391 -0.23437,0.0117 -0.33203,0.0742 l 0.28906,1.55469 -0.86718,-0.0664 0.125,-0.44531 c -0.74219,-0.78125 -2.55078,-0.59375 -3.1875,-1.41016 l -0.19922,0.10156 c -0.043,0.48438 0.59375,0.4961 0.4414,1.02735 -1.67578,0.30469 -1.80078,-1.21875 -2.91406,-1.82422 -0.23828,0.26562 -0.21094,0.76562 -0.15625,1.11328 -0.74609,0.12109 -0.8164,-1.30469 -2.14062,-1.14453 -0.10547,-0.1875 -0.1875,-0.46484 -0.46094,-0.36328 -0.42188,0.13672 0,0.57422 -0.0625,0.80078 l 0.16016,0.043 -0.082,0.30469 c -1.44921,0.0312 -2.02734,-1.02735 -2.52734,-1.8086 -0.0977,0.30078 -0.78516,0.52735 -0.25391,0.92188 -0.79687,0.60937 -1.13281,-1.36719 -1.96484,-1.82813 -0.44531,0.20703 -0.0352,0.72266 -0.11328,1.03516 l 0.13672,0.0352 -0.10547,0.38282 c -0.52734,-0.6211 -1.96484,-0.67188 -2.24219,-1.64844 l -0.1914,0.6875 c -1.54688,-0.16406 -1.13672,-1.95313 -2.10938,-2.11719 l 0.12891,1.51953 c -1.44532,0.35938 -1.09375,-1.77734 -2.35157,-1.85547 l 0.0899,1.08985 c -1.3125,0.16015 -1.12891,-1.60156 -2.06641,-1.09766 -0.27344,0.40625 -0.84765,-0.0781 -1.32031,-0.11719 0.11328,-0.70703 -0.37109,-0.99609 -0.84375,-1.53125 -0.14844,-0.043 -0.43359,-0.1914 -0.55859,0.0117 l 0.24218,1.06641 c -1.24609,-0.33594 -1.59375,-1.66016 -2.46875,-2.21484 l 0.008,0.82031 c -0.75,0.13281 -1.65625,-0.35156 -1.81641,-1.20703 l -0.15625,-0.30469 c -0.21094,0.78125 -0.5,0.37891 -1.10547,0.30469 0.15625,-0.54688 -0.38281,-0.92969 -0.69141,-1.25391 -0.13671,0.0781 -0.19531,0.22266 -0.23437,0.36719 0.0195,0.14062 0.004,0.28125 -0.0781,0.45312 0.0391,-0.1289 0.0469,-0.29297 0.0781,-0.45312 -0.0859,-0.51953 -0.71484,-0.83203 -0.76563,-1.3711 l -0.46875,1.10938 c -0.68359,-0.0937 -0.98437,-0.42578 -1.2539,-0.89453 -0.60938,0.73047 -0.32422,-0.25781 -0.95703,-0.26172 0.25781,-0.34375 -0.19922,-0.45703 -0.19922,-0.70703 -0.75781,-0.44922 -0.33203,0.3164 -0.76172,0.44922 -1.1875,-0.0547 -1.24609,-1.5586 -2.40234,-1.10938 z m -12.42188,13.77735 c -4.46875,-1.08985 -7.60937,-3.80079 -10.87109,-6.05079 0.0703,-1.13671 1.19922,-0.59765 1.35156,-1.45312 l 0.96094,-0.91016 c -0.27344,-0.97265 -0.69532,0.24219 -1.14453,0.1211 -0.57032,0.34375 -1.40625,0.77734 -1.73047,1.60156 -0.76563,-0.61719 -2.26953,-0.92969 -2.65625,-1.84375 1.29297,-0.64844 2.28515,-1.94922 3.59375,-2.59766 0.0625,-0.22656 0.28125,-0.42578 0.0234,-0.66406 l -0.375,-0.0859 c -1.79296,1.00391 -3.55468,3.34766 -5.60546,2.15625 0.16406,-0.30078 0.83203,-1.01562 1.34765,-1.13672 1.67188,-1.45312 2.92188,-2.76562 4.72266,-4.10546 -0.45703,-0.36719 -0.76172,0.14062 -1.15625,0.4375 -1.83203,1.16796 -3.78516,1.88281 -5.55469,3.39453 l -0.16016,-0.28516 c 1.16016,-0.76562 2.26954,-1.625 3.08594,-2.80859 -0.38281,-0.35157 -0.70312,0.22656 -1.0039,0.46484 -1.58594,0.25 -2.86719,1.72656 -4.49219,2.11328 0.95312,-1.39062 2.90625,-1.86328 3.65234,-3.64062 0.44531,-0.21485 0.64063,-0.90235 0.9336,-1.40235 l 0.14062,0.0469 c 0.51953,-0.44141 0.80859,-2.01563 1.55469,-2.97266 1.04297,-1.78125 2.11719,-4.46875 4.1914,-4.50781 0.34766,-0.0625 0.10547,-0.37109 0.0977,-0.62109 l -0.90625,0.0898 c 0.30469,-0.24219 0.74609,-0.96094 1.31641,-0.71875 1.17578,1.21094 3.3164,1.51953 4.59375,2.67187 0.21484,0.63672 1.36718,0.51563 1.45703,1.29297 1.6914,0.77344 2.77734,2.04688 4.34765,2.94922 0.48438,-0.0391 0.77344,0.3711 1.1211,0.53906 -1.39063,0.45313 -3.16016,0.8125 -4.41016,1.5586 -0.26953,-0.16016 -0.5039,-0.14063 -0.73047,0.0547 -1.14843,0.4375 -2.2539,0.97656 -3.23828,1.37109 l -1.28906,0.90234 c 0.25,0.55469 0.60547,-0.17187 1.01172,0.0937 0.91015,-0.99609 2.76953,-1.08593 3.91015,-1.77343 1.42188,-0.52735 2.94141,-1.44922 4.51563,-1.36329 0.44141,-0.71875 1.55859,-0.16796 2.10937,0.13282 l 0.19141,0.46875 c -2.24219,1.22265 -6.16406,1.01562 -8.45703,2.96484 0.96875,0.50781 2.09766,-0.4375 3.09375,-0.83594 1.45312,-0.36328 3.375,-1.01172 4.68359,-1.40625 1,0.42969 2.21094,-1.07422 2.64453,0.52344 1.41797,0.29297 2.10157,1.29688 3.125,1.89844 1.9375,0.74219 3.40625,1.45703 5.25,2.27344 -0.0312,0.0742 0.0195,0.17578 0.0859,0.25781 0.22266,0.0625 1.85156,0.48047 2.01172,1.10156 0.62109,-0.57031 0.73828,0.44141 1.42188,0.53906 -5.16016,2.27344 -8.47657,7.07813 -13.49219,9.37891 -1.85938,0.10156 -3.71094,1.58594 -5.27344,-0.21484" id="path10" inkscape:connector-curvature="0"></path><path style="fill:#00943d;fill-opacity:1;fill-rule:evenodd;stroke:none" d="m 102.50391,300.12891 c -1.16797,0.0234 -1.42578,0.0273 -2.41797,0.0234 -3.167971,0 -4.96094,-0.0234 -5.738284,-0.10547 -0.140625,-0.72656 -0.191406,-1.33593 -0.191406,-2.17968 0,-1.30469 0.230469,-2.33594 0.664063,-2.92578 0.621093,-0.86719 1.785156,-1.38282 3.214843,-1.38282 1.820313,0 3.414064,0.84766 3.984374,2.13282 0.34766,0.79296 0.59766,2.25781 0.59766,3.53515 0,0.35938 -0.0273,0.51563 -0.11328,0.90235 z m 1.05078,-0.0234 c 0.0352,-0.69531 0.0625,-1.05469 0.0625,-1.51563 0,-1.64453 -0.22266,-3.04687 -0.625,-4.02734 -0.85938,-2.07813 -2.73047,-3.33594 -5.015627,-3.33594 -3.191407,0 -4.847657,1.83985 -4.847657,5.44141 0,0.32812 0,0.60937 0.03516,0.8164 0.144531,2.60938 0.144531,2.60938 0.144531,3.07813 0,0.30469 0,0.30469 -0.09375,1.67187 l 0.0078,0.14844 c 2.5625,-0.125 6.851563,-0.23828 10.539063,-0.23828 3.41406,0.0117 4.49609,0.0625 8.62891,0.32031 -0.0937,-0.61718 -0.10938,-0.92578 -0.10938,-1.28125 0,-0.35547 0.0312,-0.64453 0.10938,-1.23047 -1.05079,0.10547 -4.13282,0.15235 -8.17579,0.15235 z m 0,0" id="path20" inkscape:connector-curvature="0"></path><path style="fill:#00943d;fill-opacity:1;fill-rule:evenodd;stroke:none" d="m 103.98828,267.32812 -2.62109,-0.4414 C 98.222656,266.35937 97.179688,266.16016 96.699219,266 c 0.07422,-1.13281 0.128906,-1.82422 0.21875,-2.35547 0.441406,-2.57812 2.007812,-3.82031 4.390621,-3.42187 1.35157,0.23046 2.45313,1.0625 2.97657,2.23828 0.45703,1.02343 0.48828,2.01562 0.16015,4.01172 -0.0859,0.47656 -0.10547,0.625 -0.23828,0.89843 z m 1.44922,-0.73437 c 1.17188,-0.77344 2.89063,-1.59375 8,-3.90625 1.70703,-0.73047 1.96094,-0.87109 2.30859,-1.01563 -0.0156,-0.42578 -0.0117,-0.63281 0.10938,-1.35937 0.12109,-0.71094 0.20703,-1.03125 0.375,-1.52344 l -0.14844,-0.0273 c -1.25,0.78125 -2.32422,1.32422 -10.4375,5.23437 -0.13281,-3.48047 -1.63672,-5.5625 -4.36328,-6.01562 -1.23828,-0.21094 -2.371094,0.0195 -3.277344,0.64453 -0.957031,0.69141 -1.554687,1.84375 -1.859375,3.64062 -0.05078,0.26954 -0.183593,1.24219 -0.304687,2.12891 -0.113281,0.83984 -0.203125,1.55859 -0.316406,2.21094 -0.101563,0.63281 -0.167969,0.8789 -0.363282,1.44531 0.652344,0.0859 1.078125,0.15234 2.882813,0.41406 2.277341,0.33203 3.773441,0.5586 5.886721,0.91016 4.01562,0.67969 5.47656,0.94922 8.98437,1.72266 0.55469,0.11328 0.94532,0.21484 1.20703,0.2539 -0.0312,-0.42187 -0.0234,-0.6289 0.043,-1.00781 0.0586,-0.34766 0.15625,-0.72656 0.35157,-1.37109 -1.70704,-0.20313 -5.67188,-0.79688 -7.92188,-1.17579 -0.55859,-0.0937 -0.81641,-0.14062 -1.32422,-0.24609 z m 0,0" id="path22" inkscape:connector-curvature="0"></path><path style="fill:#00943d;fill-opacity:1;fill-rule:evenodd;stroke:none" d="m 113.10156,230.125 c 0.30469,-1.0625 0.42578,-1.42969 0.54297,-1.92969 0.33203,0.19922 0.47656,0.27344 1.04297,0.46875 0.21094,0.0742 0.30078,0.10547 0.52344,0.15235 -0.4961,0.99609 -1.125,2.5664 -1.64453,4.09765 -0.20703,0.58203 -0.33985,0.9961 -0.49219,1.58985 0.44922,0.18359 3.70312,1.3164 5.21094,1.84375 1.02734,0.35937 1.39843,0.48828 2.5,0.80468 0.14843,-0.35547 0.21484,-0.54687 0.33203,-0.89062 0.66797,-1.94141 1.40234,-4.60938 1.57422,-5.71485 0.32812,0.16797 0.51562,0.25391 0.78906,0.34766 0.29297,0.10156 0.46484,0.12891 0.82812,0.20703 -0.15625,0.34375 -0.15625,0.34375 -0.53515,1.38281 -0.59375,1.53125 -0.6875,1.82422 -0.88281,2.38672 -0.4375,1.28125 -1.39063,4.23047 -1.57422,4.9336 -1.09766,-0.57032 -5.21485,-2.08985 -12.16797,-4.48047 -2.72266,-0.9375 -4.82422,-1.57422 -5.98438,-1.86328 0.95703,-2.4375 1.03516,-2.67969 1.41407,-3.76563 0.42968,-1.25781 1.1289,-3.46484 1.5039,-4.71094 0.35938,0.17188 0.53906,0.26172 0.7461,0.32422 0.19531,0.0664 0.36328,0.10157 0.80859,0.20313 -0.41797,0.75781 -1.51953,3.54297 -2.11328,5.28906 -0.10938,0.32031 -0.1875,0.53516 -0.28906,0.93359 0.84765,0.34766 3.70312,1.39844 4.94531,1.82422 0.76172,0.26563 1.13281,0.39453 1.67969,0.53125 0.20703,-0.47656 0.24218,-0.59375 0.29687,-0.76562 0.082,-0.26953 0.23438,-0.78906 0.47656,-1.54688 z m 0,0" id="path24" inkscape:connector-curvature="0"></path><path style="fill:#00943d;fill-opacity:1;fill-rule:evenodd;stroke:none" d="m 124.35156,205.67969 c 0.0781,-0.53907 -0.87109,-3.41016 -2.27734,-6.9336 -0.29297,-0.70703 -0.57422,-1.39062 -0.85156,-2.08593 -0.45703,-1.20704 -0.63672,-1.62891 -0.91407,-2.21875 0.21485,-0.25391 0.26563,-0.34766 0.42579,-0.64454 0.19921,-0.375 0.33984,-0.65234 0.55078,-1.15234 l 0.12109,0.0625 c 2.03516,6.31641 2.48438,7.66016 3.69922,10.9375 0.50391,-0.0547 1.39844,-0.20703 3.10547,-0.53906 1.8789,-0.36719 5.96093,-1.09766 6.36328,-1.13672 2.28515,-0.34766 3.125,-0.51172 3.62109,-0.65625 l 0.20313,0.11328 c -0.35157,0.47656 -0.50391,0.69141 -0.73438,1.11328 -0.23828,0.45703 -0.375,0.76953 -0.58984,1.34375 -4.92578,0.60938 -7.09375,0.96094 -11.96094,1.97656 l -0.35937,0.0469 -0.008,0.19531 4.80078,2.55469 c 2.12891,1.14844 2.94532,1.5625 3.91407,1.93359 -0.35938,0.5 -0.5,0.6875 -0.64844,0.96094 -0.10156,0.18359 -0.18359,0.39844 -0.50391,1.16406 -2.60547,-1.63672 -3.41797,-2.10937 -8.60937,-4.90625 -4.33203,-2.33984 -7.30859,-3.84765 -8.32031,-4.21875 0.28125,-0.3164 0.40625,-0.48437 0.60156,-0.86718 0.26172,-0.48438 0.375,-0.75391 0.5625,-1.27344 0.64844,0.47265 1.22266,0.83594 2.57031,1.58594 l 2.33594,1.30078 c 0.92578,0.51953 1.44531,0.80078 1.92578,1.05468 l 0.75,0.40625 z m 0,0" id="path26" inkscape:connector-curvature="0"></path><path style="fill:#00943d;fill-opacity:1;fill-rule:evenodd;stroke:none" d="m 150.24219,181.77734 c 1.16797,-1.51953 2.96875,-4.28125 3.33984,-5.08984 0.24609,0.28516 0.39453,0.42187 0.67969,0.65234 0.28125,0.21094 0.42578,0.28516 0.69922,0.40625 -0.48828,0.49219 -1.63282,1.9375 -3.14063,3.89453 -0.55859,0.73047 -2.3125,3.10547 -2.53125,3.47266 -1.02344,-0.91016 -2.85937,-2.35937 -10.0625,-7.89844 -1.80078,-1.38281 -3.82812,-2.875 -5.17578,-3.82422 0.23828,-0.1875 0.38281,-0.30859 0.91797,-1.0039 0.33984,-0.44141 0.40625,-0.57813 0.55469,-0.92578 1.4414,1.30859 4.01562,3.38281 8.78906,7.05078 2.5625,1.97656 4.79297,3.66015 5.30859,3.98047 0.22266,-0.21094 0.35157,-0.36719 0.6211,-0.71485" id="path28" inkscape:connector-curvature="0"></path><path style="fill:#00943d;fill-opacity:1;fill-rule:evenodd;stroke:none" d="m 161.64844,147.57812 6.86718,3.30079 c -0.25,0.26953 -1.42578,1.40625 -2.1914,2.125 -0.19141,0.17187 -0.21094,0.19531 -1.12891,1.01171 l -0.73047,0.67579 z m -2.25391,-2.92968 c 0.14063,0.45312 0.36328,0.98828 1.15234,2.94922 0.4961,1.21093 0.9375,2.36718 1.33985,3.50781 0.45703,1.23828 0.9375,2.51172 1.46094,3.82031 1.875,4.82422 3.17187,8.29297 3.45703,9.19531 l 0.13672,0.15625 c 0.21484,-0.32812 0.33203,-0.47656 0.5625,-0.67968 0.21484,-0.21485 0.37109,-0.31641 0.71093,-0.51563 l -0.11328,-0.20703 c -1.02734,-2.00781 -2.20312,-4.52734 -3.17578,-6.97266 l 0.21875,-0.21484 c 1.15234,-1.13672 1.44922,-1.41406 2.55469,-2.44922 l 1.58984,-1.44922 0.35156,-0.32812 c 1.38282,0.69531 3.17969,1.60156 4.47657,2.25781 0.85547,0.48437 2.45703,1.36719 2.58984,1.4375 0.23828,-0.34375 0.39063,-0.51953 0.86328,-0.95703 0.4336,-0.39844 0.61719,-0.53906 0.95313,-0.74219 l -0.0937,-0.10156 c -5.14063,-2.45703 -10.28516,-4.9375 -15.41407,-7.47656 -1.91015,-0.94922 -2.60546,-1.27735 -3.23437,-1.58204 z m 0,0" id="path30" inkscape:connector-curvature="0"></path><path style="fill:#00943d;fill-opacity:1;fill-rule:evenodd;stroke:none" d="m 195.20312,139.23047 c -0.54296,-0.73047 -1.63671,-2.33203 -3.46875,-5.21485 -2.50781,-3.9414 -4.83984,-7.78906 -5.42578,-8.90234 1.38672,-1.02734 2.08203,-1.49609 3.14453,-2.17969 2.19922,-1.39453 3.80079,-1.80859 5.48829,-1.35546 1.80859,0.46484 3.51953,1.90625 5,4.23828 1.91796,3.0039 2.46093,5.76562 1.59765,8.04296 -0.62109,1.60157 -1.58984,2.5586 -4.44531,4.37891 -0.93359,0.58984 -1.24609,0.75781 -1.89063,0.99219 z m -2.76562,-0.32813 c 0.875,1.3711 1.28125,2.09766 1.51172,2.65235 0.51172,-0.42969 0.80078,-0.64063 1.23437,-0.92188 0.17578,-0.10937 0.48438,-0.30078 0.90235,-0.53906 0.7539,-0.44531 1.45703,-0.86328 2.45312,-1.49219 3.11328,-1.98437 4.29297,-3.33984 4.95703,-5.62109 0.78516,-2.73438 0.19922,-5.86719 -1.6289,-8.73047 -1.49219,-2.34766 -3.39063,-3.84375 -5.6211,-4.38281 -2.19922,-0.53906 -3.79687,-0.15625 -6.46484,1.54687 -0.82031,0.51953 -1.58203,1.03516 -2.625,1.73828 -1.24609,0.85547 -1.3125,0.89454 -1.72656,1.16407 -0.61719,0.39843 -1.03516,0.61718 -1.71875,0.96875 0.76562,1.0625 2.39062,3.50781 4.83593,7.35156 0.7461,1.17578 1.63282,2.57031 2.1211,3.3789 z m 0,0" id="path32" inkscape:connector-curvature="0"></path><path style="fill:#00943d;fill-opacity:1;fill-rule:evenodd;stroke:none" d="m 226.46484,112.36719 c 0.38282,-3.73047 0.55469,-6.63672 0.66407,-9.89063 0.33203,-0.043 0.53515,-0.10156 0.86328,-0.23437 0.40625,-0.17188 0.58593,-0.27735 0.95312,-0.51953 -0.87109,5.28906 -1.43359,10.12109 -1.43359,12.46484 0.20312,0.53125 0.29687,0.76953 0.41406,1.02734 1.11719,2.71094 2.51172,5.83985 2.91797,6.53907 -0.55078,0.1289 -0.77734,0.19531 -1.35156,0.4375 -0.44141,0.17968 -0.60157,0.27343 -0.97657,0.51953 -0.19921,-0.83594 -1.34765,-3.9375 -2.22265,-6.07422 -0.19922,-0.48047 -0.33985,-0.82031 -0.625,-1.35156 -4.51172,-3.6836 -7.84375,-6.375 -9.96094,-8.07813 0.66797,-0.19531 1.01172,-0.30469 1.45703,-0.48828 0.42969,-0.18359 0.67969,-0.3125 1.10156,-0.57812 0.94532,0.96484 5.25391,4.73046 7.28516,6.35546 l 0.58203,0.46875 c 0.043,0.043 0.13281,0.0664 0.1836,0.0469 0.0469,-0.0156 0.0742,-0.082 0.10156,-0.15625 z m 0,0" id="path34" inkscape:connector-curvature="0"></path><path style="fill:#00943d;fill-opacity:1;fill-rule:evenodd;stroke:none" d="m 282.41016,93.046875 3.41406,6.796875 c -0.35938,0.06641 -1.98438,0.25781 -3.03906,0.34766 -0.25,0.0195 -0.28516,0.0234 -1.50391,0.11328 l -1,0.082 z m 0.008,-3.699219 c -0.16406,0.441407 -0.3086,1.003907 -0.89063,3.039063 -0.35547,1.257812 -0.70312,2.4375 -1.08203,3.585937 -0.41015,1.265625 -0.78906,2.5625 -1.18359,3.914063 -1.46875,4.976561 -2.55469,8.507811 -2.89063,9.402341 l 0.0195,0.19532 c 0.375,-0.12891 0.5586,-0.16407 0.85938,-0.19532 0.3125,-0.0273 0.49609,-0.0234 0.875,0.0312 l 0.0352,-0.23437 c 0.41406,-2.20703 1.03125,-4.92969 1.75,-7.45313 l 0.3125,-0.0352 c 1.59765,-0.19922 2.00781,-0.24219 3.51562,-0.37891 l 2.15234,-0.16406 0.48047,-0.0547 c 0.67969,1.40234 1.53907,3.20703 2.14063,4.52344 0.39844,0.90625 1.12109,2.58594 1.1914,2.71875 0.39844,-0.1211 0.62891,-0.16797 1.26563,-0.22656 0.57812,-0.0586 0.80859,-0.0469 1.19922,0 l -0.0117,-0.14844 c -2.55469,-5.08203 -5.11719,-10.195315 -7.63281,-15.33594 -0.92969,-1.917969 -1.26563,-2.605469 -1.59375,-3.230469 z m 0,0" id="path36" inkscape:connector-curvature="0"></path><path style="fill:#00943d;fill-opacity:1;fill-rule:evenodd;stroke:none" d="m 341.00781,93.808594 c -2.91406,-0.4375 -3.37109,-0.5 -4.41797,-0.542969 0.14453,-0.289062 0.20313,-0.453125 0.26953,-0.757812 0.0625,-0.335938 0.0899,-0.558594 0.0977,-1.027344 0.72266,0.296875 2.625,0.707031 7.27734,1.636719 2.20704,0.449218 3.54688,0.6875 5.59766,0.949218 -0.20312,0.335938 -0.26953,0.53125 -0.33594,0.886719 -0.0898,0.375 -0.0937,0.539063 -0.0898,0.886719 -0.81641,-0.359375 -2.73047,-0.894531 -5.14063,-1.40625 -2.10546,9.804686 -3.29687,15.992186 -3.35546,17.457036 -0.50782,-0.1875 -0.75782,-0.26563 -1.28125,-0.375 -0.50391,-0.10157 -0.76172,-0.125 -1.2461,-0.12891 0.375,-1.12109 0.60156,-2.125 1.34766,-5.60156 0.21484,-0.91797 1.83203,-8.726566 1.9414,-9.265629 0.26563,-1.3125 0.33204,-1.695312 0.42969,-2.515625 z m 0,0" id="path38" inkscape:connector-curvature="0"></path><path style="fill:#00943d;fill-opacity:1;fill-rule:evenodd;stroke:none" d="m 367.87891,118.26953 c 1.80078,0.66797 4.96875,1.57031 5.85156,1.6836 -0.19922,0.32031 -0.30078,0.5 -0.42188,0.85156 -0.125,0.3164 -0.15234,0.49219 -0.17578,0.78125 -0.62109,-0.31641 -2.34375,-0.99219 -4.65234,-1.83985 -0.8711,-0.32421 -3.64063,-1.29687 -4.08203,-1.40234 0.57031,-1.23828 1.41797,-3.42187 4.57422,-11.94141 0.78125,-2.14062 1.61328,-4.5039 2.10937,-6.08203 0.25391,0.1875 0.41797,0.27735 1.23438,0.57032 0.53125,0.20312 0.6875,0.22265 1.05468,0.27734 -0.8164,1.76172 -2.03515,4.83594 -4.13672,10.46484 -1.125,3.04688 -2.07421,5.67578 -2.22656,6.25782 0.27344,0.16015 0.46094,0.23437 0.8711,0.3789" id="path40" inkscape:connector-curvature="0"></path><path style="fill:#00943d;fill-opacity:1;fill-rule:evenodd;stroke:none" d="m 403.00391,114.20703 c -1.21094,11.64844 -1.25391,12.22266 -1.51954,16.64063 l 0.082,0.0469 c 0.54296,-0.30469 1.57812,-0.94141 3.46875,-2.20703 5.17578,-3.38281 6.96875,-4.53516 10.72656,-6.87109 l 0.28125,0.17578 c -1.19141,2.49609 -2.61328,5.46875 -4.23828,8.90234 -1.63282,3.53906 -2.95313,6.50391 -3.9961,8.85938 -0.33203,-0.28907 -0.46875,-0.41016 -0.87109,-0.63672 -0.46094,-0.27735 -0.71094,-0.40235 -1.20703,-0.59375 1.73437,-3.10547 2.72656,-5.17188 6.33203,-13.01172 -1.07422,0.59375 -1.48047,0.875 -6.61719,4.28906 -4.83594,3.24219 -5.28906,3.54297 -6.33203,4.44531 l -0.26562,-0.15234 c 0.14062,-0.77734 0.21875,-1.63281 0.46484,-3.71094 l 0.37891,-3.75 c 0.21093,-1.96484 0.42968,-4.58984 0.67968,-7.80078 -4.35156,5.67969 -6.71093,8.94531 -8.34765,11.52344 -0.23828,-0.24219 -0.34766,-0.34766 -0.64063,-0.51563 -0.32812,-0.20312 -0.51172,-0.27343 -0.88672,-0.39843 3.52735,-4.23438 3.71485,-4.48438 12.15235,-15.44922 z m 0,0" id="path42" inkscape:connector-curvature="0"></path><path style="fill:#00943d;fill-opacity:1;fill-rule:evenodd;stroke:none" d="m 443.14062,144.18359 c 1.48047,1.35547 2.23047,3.40625 2.01954,5.5 -0.19141,1.8711 -1.16016,3.72657 -2.96875,5.69532 -1.53516,1.65234 -3.26954,2.91406 -4.70313,3.41015 -2.44922,0.85156 -5.07812,0.33203 -6.88672,-1.33203 -1.41797,-1.29687 -2.15234,-3.24219 -1.94531,-5.30859 0.12891,-1.96485 1.09766,-3.82032 3.10547,-5.9961 1.33203,-1.44922 2.94531,-2.64062 4.28125,-3.14843 2.61328,-0.97657 5.23828,-0.53516 7.09765,1.17968 z m 0.65235,-0.59765 c -1.79297,-1.64453 -4.32813,-2.70703 -6.46485,-2.69532 -2.59765,0.0156 -5.41015,1.3711 -7.45703,3.59766 -4.08203,4.44531 -4.07422,9.76953 0.0703,13.5625 4.25,3.90234 10.05078,3.47656 14.20312,-1.05469 1.60156,-1.75 2.58203,-3.70703 2.84766,-5.7539 0.35156,-2.84375 -0.67188,-5.32813 -3.19922,-7.65625" id="path44" inkscape:connector-curvature="0"></path><path style="fill:#00943d;fill-opacity:1;fill-rule:evenodd;stroke:none" d="m 460.0625,189.95703 c -1.75781,-0.51562 -3.40625,-1.71875 -4.73438,-3.51562 -3.24609,-4.38282 -2.30859,-9.52735 2.4375,-13.03907 5.06641,-3.74609 10.42188,-3.11718 13.97657,1.69141 1.21484,1.64062 2.01172,3.38672 2.28906,4.99609 -0.59375,0.17969 -1.71875,0.66016 -2.07031,0.89844 l -0.15235,-0.10937 c 0.4336,-1.94922 0.0547,-3.80079 -1.07031,-5.32813 -1.29687,-1.75781 -3.38281,-2.69531 -5.63281,-2.57031 -1.66406,0.125 -3.76563,1 -5.72266,2.4414 -4.3125,3.20313 -5.41797,7.3125 -2.88672,10.73047 1.12891,1.52344 2.89453,2.53125 5.125,2.94141 l 0.008,0.15234 z m 14.58984,-20.84766 c -0.13672,0.86329 -0.18359,1.01172 -0.51953,3.47266 l -0.0937,0.53516 4.13672,0.75 0.53516,0.71875 c -1,-0.0547 -2.8711,-0.0469 -5.83985,-0.0156 l -0.67187,-0.90625 c 0.26172,-0.58203 0.28906,-0.6875 0.4414,-1.08984 l 0.84375,-2.35547 c 0.26954,-0.70313 0.3125,-0.83203 0.64063,-1.80859 z m 0,0" id="path46" inkscape:connector-curvature="0"></path><path style="fill:#00943d;fill-opacity:1;fill-rule:evenodd;stroke:none" d="m 482.19922,209.13672 c 0.55078,0.95703 0.71484,1.30469 1.0039,1.73047 -0.36328,0.10156 -0.53125,0.15625 -1.0625,0.43359 -0.21093,0.0937 -0.26953,0.13672 -0.46484,0.25781 -0.37891,-1.04297 -1.06641,-2.58984 -1.79687,-4.03515 -0.28516,-0.54688 -0.48047,-0.9375 -0.8125,-1.46485 -0.44141,0.20703 -3.52344,1.74219 -4.94922,2.46094 -0.96485,0.49219 -1.3086,0.67578 -2.3086,1.23438 0.15235,0.35156 0.23828,0.53906 0.39844,0.85546 0.92969,1.83594 2.33984,4.22657 3.01953,5.11329 -0.35547,0.125 -0.54687,0.19531 -0.80859,0.33203 -0.26953,0.1289 -0.41797,0.23828 -0.71485,0.44531 -0.14843,-0.34766 -0.14843,-0.34766 -0.63281,-1.35156 -0.68359,-1.48828 -0.82812,-1.76953 -1.09765,-2.28516 -0.60938,-1.20703 -2.0625,-3.95312 -2.4375,-4.56641 1.16015,-0.39453 5.13281,-2.29687 11.6914,-5.62109 2.56641,-1.30469 4.47656,-2.36328 5.4961,-2.99609 1.08593,2.38672 1.19531,2.61718 1.72656,3.63672 0.59765,1.19531 1.69531,3.22656 2.33984,4.36718 -0.3789,0.12891 -0.57031,0.19532 -0.78125,0.30469 -0.16406,0.0781 -0.30859,0.19141 -0.68359,0.44141 -0.26172,-0.81641 -1.5,-3.5625 -2.32813,-5.20703 -0.16406,-0.30079 -0.25,-0.5 -0.47656,-0.85547 -0.82812,0.36718 -3.57812,1.68359 -4.74609,2.26953 -0.71485,0.36719 -1.07422,0.55078 -1.5586,0.84765 0.20313,0.46875 0.26563,0.59375 0.34766,0.7461 0.12891,0.2539 0.39844,0.71484 0.77734,1.41015 z m 0,0" id="path48" inkscape:connector-curvature="0"></path><path style="fill:#00943d;fill-opacity:1;fill-rule:evenodd;stroke:none" d="m 500.35547,230.07031 c -0.16016,0.24219 -0.47656,0.71094 -2.04688,3.0625 l -1.3789,2.10938 -2.75391,4.33203 c -0.76172,1.14062 -1.47656,2.29687 -2.21484,3.41015 -1.23828,1.89844 -1.86328,2.8711 -2.22657,3.54297 l 0.33204,-0.10156 4.24609,-1.24219 c 5.51953,-1.68359 7.64844,-2.35156 9.34766,-3.0039 0,0.39843 0.0351,0.49218 0.17187,0.93359 0.10938,0.36719 0.17188,0.48438 0.33984,0.75781 -2.14453,0.38282 -7.78906,1.89063 -12.2539,3.25391 -4.55078,1.37891 -5.97656,1.81641 -6.61328,2.07031 l -0.11719,-0.37109 c 1.15234,-1.47266 4.90625,-7.02344 7.08594,-10.47656 0.66015,-1.05469 1.30078,-2.08594 1.98437,-3.08985 1.23828,-1.88672 1.76563,-2.71094 1.96094,-3.125 -1.03125,0.29297 -6.25391,1.83203 -6.9375,2.03516 -2.61719,0.80859 -5.80859,1.88281 -7.40625,2.5039 -0.004,-0.34375 -0.043,-0.52343 -0.15234,-0.91796 -0.125,-0.39454 -0.19141,-0.53516 -0.37891,-0.80079 2.28906,-0.40234 9.57812,-2.40625 17.56641,-4.83593 0.64843,-0.20313 0.90234,-0.28907 1.32812,-0.4375 z m 0,0" id="path50" inkscape:connector-curvature="0"></path><path style="fill:#00943d;fill-opacity:1;fill-rule:evenodd;stroke:none" d="m 508.94922,268.9375 c 0.0703,0.57812 0.13281,0.78516 0.26562,1.17578 -1.32422,0.10938 -4.86718,0.49609 -7.09375,0.79688 -5.90234,0.8164 -10.09765,1.47265 -11.9414,1.82812 -0.004,-0.67187 -0.0274,-0.98047 -0.0664,-1.29297 -0.0508,-0.34765 -0.10937,-0.61719 -0.26953,-1.14844 3.09766,-0.24218 4.02734,-0.34375 6.3125,-0.66406 7.11328,-0.96875 11.39453,-1.63672 12.73437,-1.95703 -0.0391,0.44531 -0.0391,0.65625 0.0586,1.26172" id="path52" inkscape:connector-curvature="0"></path><path style="fill:#00943d;fill-opacity:1;fill-rule:evenodd;stroke:none" d="m 502.68359,300.69922 c 0.0625,1.09375 0.0625,1.48047 0.10547,1.99609 -0.35937,-0.0781 -0.53125,-0.10937 -1.1289,-0.10937 -0.22266,0 -0.32422,0 -0.54688,0.0195 0.14063,-1.08985 0.24609,-2.78906 0.24609,-4.40235 0,-0.62109 0,-1.05078 -0.0469,-1.66406 -0.49609,-0.0312 -3.9375,-0.0625 -5.53906,-0.0703 -1.08594,0 -1.47657,0 -2.61328,0.0508 -0.043,0.37891 -0.0352,0.58984 -0.0352,0.9375 -0.008,2.05859 0.15234,4.82422 0.35937,5.93359 -0.38281,-0.0586 -0.5664,-0.0742 -0.85937,-0.0859 -0.30859,0 -0.47656,0.0273 -0.85547,0.0781 0.0352,-0.39062 0.0352,-0.39062 0.0664,-1.48437 0.0625,-1.64453 0.0625,-1.95313 0.0625,-2.54688 0,-1.34765 -0.0547,-4.45703 -0.10938,-5.17578 1.23828,0.1875 5.6211,0.30078 12.96875,0.3125 2.87891,0.0117 5.07031,-0.0586 6.26172,-0.16016 -0.125,2.61719 -0.125,2.875 -0.125,4.03125 0,1.33204 0.0547,3.63672 0.10938,4.94532 -0.41016,-0.0586 -0.61329,-0.0859 -0.82032,-0.0859 -0.21484,0 -0.375,0.0273 -0.83203,0.0859 0.13672,-0.84766 0.29297,-3.84766 0.29297,-5.6875 0.008,-0.33985 0.008,-0.57422 -0.0273,-0.98438 -0.90235,-0.0508 -3.94922,-0.13672 -5.26172,-0.13672 -0.80078,-0.004 -1.20703,-0.0117 -1.76953,0.043 -0.0195,0.51563 -0.0195,0.64063 -0.0195,0.82031 0,0.28125 0.0156,0.82422 0.0469,1.60938 z m 0,0" id="path54" inkscape:connector-curvature="0"></path><path style="fill:#00943d;fill-opacity:1;fill-rule:evenodd;stroke:none" d="M 267.125,342.65625 H 107.48047 v -2.67188 H 267.125 Z m 0,0" id="path92" inkscape:connector-curvature="0"></path><path style="fill:#00943d;fill-opacity:1;fill-rule:evenodd;stroke:none" d="M 496.66797,342.65625 H 337.02734 v -2.67188 h 159.64063 z m 0,0" id="path94" inkscape:connector-curvature="0"></path><path style="fill:#00943d;fill-opacity:1;fill-rule:evenodd;stroke:none" d="m 281.01562,344.83203 h 0.58204 c 0.082,0.70703 0.17578,1.04688 0.36718,1.37109 0.44141,0.65235 1.29297,1.06641 2.19141,1.06641 1.24219,0 2.16016,-0.85547 2.16016,-2.05469 0,-1.08593 -0.41016,-1.54687 -2.61719,-3.04297 -2.125,-1.46093 -2.65625,-2.09765 -2.65625,-3.26171 0,-1.78516 1.58203,-3 3.90234,-3 0.89844,0 1.63281,0.0976 2.54688,0.38281 v 2.30078 h -0.58985 c -0.0586,-0.44141 -0.10937,-0.63281 -0.23437,-0.85938 -0.34375,-0.63281 -1.05469,-1.03515 -1.84766,-1.03515 -1.05469,0 -1.80078,0.66406 -1.80078,1.52734 0,0.34375 0.14844,0.73047 0.36328,1.00781 0.38281,0.42579 0.38281,0.42579 2.52344,1.94532 1.86328,1.30859 2.47266,2.125 2.47266,3.33203 0,2.14844 -1.71094,3.53906 -4.35547,3.53906 -1.15235,0 -2.01563,-0.18359 -3.00782,-0.61328 z m 0,0" id="path100" inkscape:connector-curvature="0"></path><path style="fill:#00943d;fill-opacity:1;fill-rule:evenodd;stroke:none" d="m 294.29297,346.58984 c 0,0.77344 -0.69922,1.46094 -1.49219,1.46094 -0.78906,0 -1.47656,-0.6875 -1.47656,-1.48828 0,-0.80859 0.6875,-1.48438 1.46484,-1.48438 0.81641,0 1.50391,0.67579 1.50391,1.51172" id="path102" inkscape:connector-curvature="0"></path><path style="fill:#00943d;fill-opacity:1;fill-rule:evenodd;stroke:none" d="m 302.08203,336.78516 c 0.73828,-0.73438 0.95313,-0.875 1.47656,-0.875 0.34766,0 0.57813,0.17578 0.86328,0.6875 l 0.64454,1.09375 c 0.0156,0.10156 0.0547,0.11718 0.0547,0.16406 0,0.10547 -0.0547,0.15625 -0.20703,0.25 l -0.67578,0.43359 c -0.0625,0.0312 -0.10156,0.0547 -0.125,0.0547 -0.0625,0 -0.10547,0 -0.21875,-0.0781 l -0.82422,-0.41015 c -0.23437,-0.0937 -0.42969,-0.14453 -0.68359,-0.14453 -0.61328,0 -1.05078,0.29297 -1.27344,0.87109 -0.14844,0.41797 -0.22266,1.22266 -0.22266,2.41406 v 3.63282 c 0,1.49218 0.0274,1.68359 0.26563,1.90625 0.23047,0.21484 0.46484,0.26171 2.05078,0.38671 v 0.60938 h -6.25391 v -0.60938 C 298.4375,347 298.4375,347 298.61719,346.66016 c 0.15625,-0.21875 0.17968,-0.51172 0.17968,-1.78125 v -6.26172 c 0,-0.92578 -0.25781,-1.14453 -1.3164,-1.14453 h -0.52735 v -0.58204 c 1.55079,-0.082 2.94141,-0.41406 3.9375,-0.98046 v 2.11718 z m 0,0" id="path104" inkscape:connector-curvature="0"></path><path style="fill:#00943d;fill-opacity:1;fill-rule:evenodd;stroke:none" d="m 309.22656,346.58984 c 0,0.77344 -0.70703,1.46094 -1.48828,1.46094 -0.80469,0 -1.48828,-0.6875 -1.48828,-1.48828 0,-0.80859 0.68359,-1.48438 1.47266,-1.48438 0.82031,0 1.5039,0.67579 1.5039,1.51172" id="path106" inkscape:connector-curvature="0"></path><path style="fill:#00943d;fill-opacity:1;fill-rule:evenodd;stroke:none" d="m 317.87109,336.69922 c 2.32032,0 3.75782,2.10937 3.75782,5.45312 0,3.14063 -1.38282,5.11719 -3.60938,5.11719 -2.1875,0 -3.66797,-2.17187 -3.66797,-5.31641 0,-3.23437 1.35547,-5.2539 3.51953,-5.2539 z m 0.30078,-0.78906 c -3.57031,0 -6.16796,2.66015 -6.16796,6.24218 0,3.41407 2.41406,5.89844 5.69531,5.89844 3.63672,0 6.2539,-2.61719 6.2539,-6.16406 0,-3.53125 -2.34765,-5.97656 -5.78125,-5.97656" id="path108" inkscape:connector-curvature="0"></path><path style="fill:#00943d;fill-opacity:1;fill-rule:evenodd;stroke:none" d="m 328.25391,345.07812 c -0.77735,0 -1.46485,0.67579 -1.46485,1.48438 0,0.80078 0.6875,1.48828 1.48828,1.48828 0.78516,0 1.48047,-0.6875 1.48047,-1.46094 0,-0.83593 -0.67187,-1.51172 -1.5039,-1.51172" id="path110" inkscape:connector-curvature="0"></path></g></svg> 