<?xml version="1.0" encoding="utf-8"?>
<!-- Generator: Adobe Illustrator 17.1.0, SVG Export Plug-In . SVG Version: 6.00 Build 0)  -->
<!DOCTYPE svg PUBLIC "-//W3C//DTD SVG 1.1//EN" "http://www.w3.org/Graphics/SVG/1.1/DTD/svg11.dtd">
<svg version="1.1" id="Layer_1" xmlns="http://www.w3.org/2000/svg" xmlns:xlink="http://www.w3.org/1999/xlink" x="0px" y="0px"
	 viewBox="0 0 226.8 226.8" enable-background="new 0 0 226.8 226.8" xml:space="preserve">
<path fill="#E2231A" d="M24.3,151.8c0.6,0.1,0.9,0.1,1.5,0.1c0.3,0,0.8,0,1.4-0.1c0.7,0,1.3,0,1.6,0c2.3,0,3.4,0.8,3.4,2.4
	c0,1.5-0.9,2.5-2.7,2.8c2.2,0.3,3.2,1.3,3.2,3.1c0,2-1.3,3-3.7,3c-0.3,0-0.9,0-1.5,0c-0.6,0-1.1-0.1-1.5-0.1c-0.6,0-1,0-1.6,0.1
	v-0.4c1-0.1,1.3-0.7,1.3-2.7v-5.2c0-2-0.3-2.6-1.3-2.7V151.8 M26.8,156.8c0.3,0,0.4,0,0.7,0c2.2,0,3.3-0.7,3.3-2.2
	c0-1.4-1-2.2-2.6-2.2c-0.5,0-0.8,0-1.3,0.2V156.8z M26.8,159.9c0,2.3,0.2,2.6,1.5,2.6c2,0,2.8-0.7,2.8-2.3c0-1.9-1.2-2.8-3.8-2.8
	c-0.1,0-0.3,0-0.6,0V159.9z"/>
<path fill="#E2231A" d="M36.5,160.1c0,2,0.3,2.6,1.3,2.7v0.4c-0.7-0.1-1.2-0.1-1.8-0.1c-0.8,0-1.2,0-1.9,0.1v-0.4
	c1-0.1,1.3-0.7,1.3-2.7v-2c0-2-0.3-2.7-1.3-2.7V155c0.7,0.1,1.1,0.1,1.6,0.1c0.3,0,0.7,0,1.3-0.1c0.4,0,0.9,0,1.1,0
	c1.6,0,2.3,0.6,2.3,1.9c0,1.1-0.5,1.8-1.8,2.1c0.4,0.2,0.6,0.3,1.1,1.1l1,1.5c0.5,0.8,0.9,1.1,1.4,1.3v0.3h-1.2
	c-0.5,0-0.6-0.1-0.9-0.6l-1.4-2.2c-0.3-0.5-0.8-0.9-1.1-1.2c-0.2,0-0.4,0-0.4,0c-0.2,0-0.3,0-0.5,0V160.1 M36.5,158.6
	c0.3,0,0.5,0,0.8,0c1.2,0,2-0.6,2-1.5c0-1-0.7-1.6-1.9-1.6c-0.3,0-0.5,0-0.8,0.1V158.6z"/>
<path fill="#E2231A" d="M44.5,160.4l-0.2,0.4c-0.2,0.5-0.3,0.8-0.3,1.1c0,0.6,0.2,0.8,1,0.9v0.4c-0.8-0.1-1.1-0.1-1.5-0.1
	c-0.4,0-0.6,0-1.5,0.1v-0.3c0.4-0.2,0.6-0.5,0.8-0.9c0.3-0.5,0.7-1.3,0.9-1.9l1.4-3.4c0.2-0.4,0.3-0.7,0.3-0.9
	c0-0.4-0.2-0.5-0.8-0.5V155c0.2,0,0.4,0,0.4,0c0.6,0,1.1-0.1,1.6-0.2c0.2,0.7,0.2,0.8,0.6,1.6l1.6,4c0.6,1.5,0.9,2,1.5,2.4v0.3
	c-0.7-0.1-1.1-0.1-1.5-0.1c-0.5,0-0.9,0-1.6,0.1v-0.4c0.7-0.1,0.9-0.3,0.9-0.8c0-0.3-0.1-0.6-0.3-1.2l-0.2-0.4H44.5 M46.1,156.3
	l-1.4,3.4h2.7L46.1,156.3z"/>
<path fill="#E2231A" d="M54.5,160.1c0,2,0.3,2.6,1.2,2.7v0.4c-0.7-0.1-1.2-0.1-1.8-0.1c-0.6,0-1.1,0-1.8,0.1v-0.4
	c1,0,1.3-0.7,1.3-2.7v-4.5c-1.6,0-2.1,0.3-2.4,1.4l-0.3-0.1c0.2-0.8,0.2-1.2,0.2-1.9c0.5,0.1,1.1,0.1,2.1,0.1h2.2c0.8,0,1.3,0,2-0.1
	c0,0.7,0.1,1.1,0.2,1.9l-0.4,0.1c-0.4-1.1-0.7-1.3-2.5-1.4V160.1"/>
<path fill="#E2231A" d="M59.4,158c0-2-0.3-2.7-1.3-2.7V155c0.8,0.1,1.3,0.1,1.8,0.1c0.6,0,1,0,1.9-0.1v0.3c-1,0.1-1.3,0.7-1.3,2.7v2
	c0,2,0.3,2.7,1.3,2.7v0.4c-0.8-0.1-1.2-0.1-1.9-0.1c-0.4,0-0.9,0-1.8,0.1v-0.4c1,0,1.3-0.7,1.3-2.7V158"/>
<path fill="#E2231A" d="M67.9,157.4c-0.2-1.3-0.9-2-2-2c-0.9,0-1.4,0.5-1.4,1.3c0,0.8,0.2,1,2,1.7c1.7,0.7,2.1,1.1,2.1,2.3
	c0,1.6-1.1,2.5-3.1,2.5c-0.8,0-1.5-0.1-2.3-0.4c0.1-0.5,0.1-0.8,0.1-1.2c0-0.4,0-0.7-0.1-1.3h0.4c0.2,1.5,0.9,2.3,2.2,2.3
	c1,0,1.6-0.6,1.6-1.6c0-0.8-0.4-1.2-1.6-1.7c-1.2-0.5-1.4-0.6-1.7-0.9c-0.4-0.3-0.6-0.8-0.6-1.4c0-1.4,1-2.2,2.8-2.2
	c0.7,0,1.3,0.1,2,0.3c0,0.4-0.1,0.6-0.1,1.1c0,0.3,0,0.6,0.1,1.1H67.9"/>
<path fill="#E2231A" d="M76.7,160.9c-0.4,1-0.6,1.5-0.7,2.3c-0.5,0-0.6,0-1.2-0.1c-0.5,0-1.2,0-1.5,0h-1.6c-0.6,0-1.1,0-1.5,0v-0.4
	c1-0.1,1.2-0.7,1.2-2.7v-2c0-2-0.3-2.6-1.2-2.7V155c0.7,0.1,1.2,0.1,1.7,0.1c0.6,0,1,0,1.9-0.1v0.3c-1,0.1-1.3,0.7-1.3,2.7v2.7
	c0,1.5,0.2,1.8,1.2,1.8c1.3,0,2.2-0.6,2.7-1.8L76.7,160.9"/>
<path fill="#E2231A" d="M79,160.4l-0.2,0.4c-0.2,0.5-0.3,0.8-0.3,1.1c0,0.6,0.2,0.8,1,0.9v0.4c-0.8-0.1-1.1-0.1-1.5-0.1
	c-0.4,0-0.6,0-1.5,0.1v-0.3c0.4-0.2,0.6-0.5,0.8-0.9c0.3-0.5,0.7-1.3,0.9-1.9l1.4-3.4c0.2-0.4,0.3-0.7,0.3-0.9
	c0-0.4-0.2-0.5-0.8-0.5V155c0.2,0,0.4,0,0.4,0c0.6,0,1.1-0.1,1.6-0.2c0.2,0.7,0.2,0.8,0.6,1.6l1.6,4c0.6,1.5,0.9,2,1.5,2.4v0.3
	c-0.7-0.1-1.1-0.1-1.5-0.1c-0.5,0-0.9,0-1.6,0.1v-0.4c0.7-0.1,0.9-0.3,0.9-0.8c0-0.3-0.1-0.6-0.3-1.2l-0.2-0.4H79 M80.6,156.3
	l-1.4,3.4H82L80.6,156.3z"/>
<path fill="#E2231A" d="M90.7,158.1c0.2-0.4,0.4-1,0.5-1.3c0.1-0.3,0.1-0.4,0.1-0.6c0-0.5-0.3-0.7-1-0.8V155c0.6,0.1,1,0.1,1.6,0.1
	c0.5,0,0.9,0,1.5-0.1v0.3c-0.3,0.2-0.5,0.4-0.9,1c-0.3,0.5-0.9,1.7-1.1,2.2l-0.9,2.4c-0.3,0.8-0.6,1.6-0.8,2.3h-0.8l-2.2-5.1
	c-0.7-1.7-1.2-2.5-1.7-2.8V155c0.7,0.1,1.1,0.1,1.6,0.1c0.5,0,0.9,0,1.6-0.1v0.4c-0.6,0.1-0.9,0.3-0.9,0.8c0,0.3,0.1,0.7,0.4,1.5
	l1.8,4L90.7,158.1"/>
<path fill="#E2231A" d="M95.4,160.4l-0.2,0.4c-0.2,0.5-0.3,0.8-0.3,1.1c0,0.6,0.2,0.8,1,0.9v0.4c-0.8-0.1-1.1-0.1-1.5-0.1
	c-0.4,0-0.6,0-1.5,0.1v-0.3c0.4-0.2,0.6-0.5,0.8-0.9c0.3-0.5,0.7-1.3,0.9-1.9l1.4-3.4c0.2-0.4,0.3-0.7,0.3-0.9
	c0-0.4-0.2-0.5-0.8-0.5V155c0.2,0,0.4,0,0.4,0c0.6,0,1.1-0.1,1.6-0.2c0.2,0.7,0.2,0.8,0.6,1.6l1.6,4c0.6,1.5,0.9,2,1.5,2.4v0.3
	c-0.7-0.1-1.1-0.1-1.5-0.1c-0.5,0-0.9,0-1.6,0.1v-0.4c0.7-0.1,0.9-0.3,0.9-0.8c0-0.3-0.1-0.6-0.3-1.2l-0.1-0.4H95.4 M97,156.3
	l-1.4,3.4h2.7L97,156.3z"/>
<path fill="#E2231A" d="M109,158.6c-1.7,0.4-2.7,0.7-4.1,1.3v-1.3c1.4-0.3,2.1-0.5,4.1-1.3V158.6"/>
<path fill="#E2231A" d="M119.9,155c-0.4-1.8-1.3-2.7-2.7-2.7c-1.3,0-2.1,0.7-2.1,1.9c0,0.6,0.3,1.1,0.7,1.5c0.3,0.2,0.6,0.4,0.9,0.5
	l0.3,0.1l0.3,0.2l0.3,0.2c2.2,1,2.9,1.8,2.9,3.2c0,2.1-1.5,3.4-4.1,3.4c-1,0-2.2-0.2-3-0.5c0-0.5,0.1-0.9,0.1-1.4
	c0-0.4,0-0.8-0.1-1.5h0.5c0.2,1.7,1.2,2.7,2.8,2.7c1.6,0,2.6-0.9,2.6-2.4c0-0.8-0.3-1.3-1-1.8c-0.3-0.2-0.8-0.5-1.1-0.6l-0.7-0.3
	l-0.3-0.2c-1.7-0.8-2.3-1.5-2.3-2.7c0-1.8,1.5-2.9,3.8-2.9c0.8,0,1.7,0.1,2.7,0.4c-0.1,0.5-0.1,0.8-0.1,1.4c0,0.3,0,0.8,0.1,1.6
	H119.9"/>
<path fill="#E2231A" d="M125.7,160.1c0,2,0.3,2.6,1.2,2.7v0.4c-0.7-0.1-1.2-0.1-1.8-0.1c-0.6,0-1.1,0-1.8,0.1v-0.4
	c1,0,1.3-0.7,1.3-2.7v-4.5c-1.6,0-2.1,0.3-2.4,1.4l-0.3-0.1c0.2-0.8,0.2-1.2,0.2-1.9c0.5,0.1,1.1,0.1,2.1,0.1h2.2c0.8,0,1.3,0,2-0.1
	c0,0.7,0,1.1,0.2,1.9l-0.4,0.1c-0.4-1.1-0.7-1.3-2.5-1.4V160.1"/>
<path fill="#E2231A" d="M131.1,160.4l-0.2,0.4c-0.2,0.5-0.3,0.8-0.3,1.1c0,0.6,0.2,0.8,1,0.9v0.4c-0.8-0.1-1.1-0.1-1.5-0.1
	c-0.4,0-0.6,0-1.5,0.1v-0.3c0.4-0.2,0.6-0.5,0.8-0.9c0.3-0.5,0.7-1.3,0.9-1.9l1.4-3.4c0.2-0.4,0.3-0.7,0.3-0.9
	c0-0.4-0.2-0.5-0.8-0.5V155c0.2,0,0.4,0,0.4,0c0.6,0,1.1-0.1,1.6-0.2c0.2,0.7,0.2,0.8,0.6,1.6l1.6,4c0.6,1.5,0.9,2,1.5,2.4v0.3
	c-0.7-0.1-1.1-0.1-1.5-0.1c-0.5,0-0.9,0-1.6,0.1v-0.4c0.7-0.1,0.9-0.3,0.9-0.8c0-0.3-0.1-0.6-0.3-1.2l-0.2-0.4H131.1 M132.7,156.3
	l-1.4,3.4h2.7L132.7,156.3z"/>
<path fill="#E2231A" d="M140.1,160.1c0,2,0.3,2.6,1.3,2.7v0.4c-0.7-0.1-1.2-0.1-1.8-0.1c-0.8,0-1.2,0-1.9,0.1v-0.4
	c1-0.1,1.3-0.7,1.3-2.7v-2c0-2-0.3-2.7-1.3-2.7V155c0.7,0.1,1.1,0.1,1.5,0.1c0.3,0,0.7,0,1.3-0.1c0.4,0,0.9,0,1.1,0
	c1.6,0,2.3,0.6,2.3,1.9c0,1.1-0.5,1.8-1.8,2.1c0.4,0.2,0.6,0.3,1.1,1.1l1,1.5c0.5,0.8,0.9,1.1,1.4,1.3v0.3h-1.2
	c-0.5,0-0.6-0.1-0.9-0.6l-1.4-2.2c-0.3-0.5-0.8-0.9-1.1-1.2c-0.2,0-0.4,0-0.4,0c-0.2,0-0.3,0-0.5,0V160.1 M140.1,158.6
	c0.3,0,0.5,0,0.8,0c1.2,0,2-0.6,2-1.5c0-1-0.7-1.6-1.9-1.6c-0.3,0-0.5,0-0.8,0.1V158.6z"/>
<path fill="#E2231A" d="M148.7,158.5h1.1c1.1,0,1.5-0.2,1.6-0.9h0.3c-0.1,0.4-0.1,0.7-0.1,1.2c0,0.5,0,0.7,0.1,1.2h-0.3
	c-0.1-0.6-0.5-0.9-1.6-0.9h-1.1v1c0,2.2,0.1,2.4,1.2,2.4c1.3,0,2.3-0.6,2.8-1.8l0.4,0.1c-0.3,0.8-0.6,1.4-0.8,2.3
	c-0.8-0.1-1.9-0.1-2.8-0.1h-1.9c-0.1,0-0.4,0-0.8,0c-0.2,0-0.2,0-0.4,0v-0.4c1-0.1,1.3-0.7,1.3-2.7v-2c0-2-0.3-2.6-1.3-2.7V155
	c0.3,0,0.4,0,0.8,0c0.1,0,0.2,0,0.5,0h1.8c0.5,0,1.3,0,1.8,0c0.3,0,0.4,0,0.8-0.1c0,0.7,0.1,1.2,0.2,1.9l-0.3,0.1
	c-0.4-1.1-0.9-1.4-2.5-1.4h-0.7V158.5 M148.2,153.7c1.4-1,2.1-1.6,3.1-2.7c0.4,0.4,0.5,0.6,0.8,1c-0.9,0.8-2.2,1.6-3.5,2.2
	L148.2,153.7z"/>
<path fill="#E2231A" d="M168.1,154.5c0.4-0.9,0.7-1.9,0.9-2.7c0.5,0.1,0.9,0.1,1.3,0.1c0.5,0,0.8,0,1.2-0.1v0.4
	c-0.7,0.1-1.1,0.7-1.1,1.8c0,0.3,0,0.9,0.1,1.6l0,0.8l0.1,1.7c0.1,0.8,0.2,1.9,0.2,2.6c0.2,1.4,0.5,2,1.3,2.2v0.3
	c-0.5-0.1-0.9-0.1-1.7-0.1c-0.8,0-1.3,0-2,0.1v-0.4c0.7-0.1,1.1-0.6,1.1-1.5c0-0.1,0-0.4,0-0.7c0-0.3,0-0.6,0-0.6l-0.4-6.4l-2.8,6.8
	c-0.3,0.7-0.6,1.7-0.9,2.7h-1l-3.7-9.5l-0.4,5.6c0,0.6-0.1,1.2-0.1,1.6c0,1.3,0.3,1.8,1.2,2v0.3c-0.7-0.1-1.1-0.1-1.8-0.1
	c-0.5,0-1,0-1.7,0.1v-0.3c1-0.1,1.3-0.8,1.5-3.4l0.3-4.1c0.1-0.7,0.1-1.1,0.1-1.4c0-1.1-0.3-1.6-1-1.7v-0.4c0.5,0.1,0.8,0.1,1.3,0.1
	c0.4,0,0.7,0,1.2-0.1c0.2,0.9,0.4,1.5,0.8,2.4l2.8,7.4L168.1,154.5"/>
<path fill="#E2231A" d="M175.9,158.5h1.1c1.1,0,1.5-0.2,1.6-0.9h0.3c-0.1,0.4-0.1,0.7-0.1,1.2c0,0.5,0,0.7,0.1,1.2h-0.3
	c-0.1-0.6-0.5-0.9-1.6-0.9h-1.1v1c0,2.2,0.1,2.4,1.2,2.4c1.3,0,2.3-0.6,2.8-1.8l0.4,0.1c-0.3,0.8-0.6,1.4-0.8,2.3
	c-0.8-0.1-1.9-0.1-2.8-0.1h-1.9c-0.1,0-0.4,0-0.8,0c-0.2,0-0.2,0-0.4,0v-0.4c1-0.1,1.3-0.7,1.3-2.7v-2c0-2-0.3-2.6-1.3-2.7V155
	c0.3,0,0.4,0,0.8,0c0.1,0,0.2,0,0.5,0h1.8c0.5,0,1.3,0,1.8,0c0.3,0,0.4,0,0.8-0.1c0,0.7,0.1,1.2,0.2,1.9l-0.3,0.1
	c-0.4-1.1-0.9-1.4-2.5-1.4h-0.7V158.5"/>
<path fill="#E2231A" d="M186.1,157.4c-0.2-1.3-0.9-2-2-2c-0.9,0-1.4,0.5-1.4,1.3c0,0.8,0.2,1,2,1.7c1.7,0.7,2.1,1.1,2.1,2.3
	c0,1.6-1.1,2.5-3.1,2.5c-0.8,0-1.5-0.1-2.3-0.4c0.1-0.5,0.1-0.8,0.1-1.2c0-0.4,0-0.7-0.1-1.3h0.4c0.2,1.5,0.9,2.3,2.2,2.3
	c1,0,1.6-0.6,1.6-1.6c0-0.8-0.4-1.2-1.6-1.7c-1.2-0.5-1.4-0.6-1.7-0.9c-0.4-0.3-0.6-0.8-0.6-1.4c0-1.4,1-2.2,2.8-2.2
	c0.7,0,1.3,0.1,2,0.3c-0.1,0.4-0.1,0.6-0.1,1.1c0,0.3,0,0.6,0.1,1.1H186.1"/>
<path fill="#E2231A" d="M191.6,160.1c0,2,0.3,2.6,1.2,2.7v0.4c-0.7-0.1-1.2-0.1-1.8-0.1c-0.6,0-1.1,0-1.8,0.1v-0.4
	c1,0,1.3-0.7,1.3-2.7v-4.5c-1.5,0-2.1,0.3-2.4,1.4l-0.3-0.1c0.2-0.8,0.2-1.2,0.2-1.9c0.5,0.1,1.1,0.1,2.1,0.1h2.2c0.8,0,1.3,0,2-0.1
	c0,0.7,0,1.1,0.2,1.9l-0.4,0.1c-0.4-1.1-0.7-1.3-2.5-1.4V160.1"/>
<path fill="#E2231A" d="M203.4,159c0,2.8-1.4,4.3-4.1,4.3c-2.5,0-3.9-1.4-3.9-4c0-2.9,1.5-4.4,4.2-4.4
	C202.1,154.8,203.4,156.2,203.4,159 M196.8,159.1c0,2.3,1,3.6,2.7,3.6c1.7,0,2.7-1.3,2.7-3.5c0-2.5-0.9-3.8-2.7-3.8
	C197.8,155.4,196.8,156.8,196.8,159.1z"/>
<path fill="#E2231A" d="M154.5,142.3c0-0.7,0-2.5,0-3.2c-0.2,0-1.8,0-4.1,0c-8.1,0-25.5,0-26.3,0c0.2,1,0.3,2.1,0.3,3.2
	C125.3,142.3,153.6,142.3,154.5,142.3"/>
<path fill="#E2231A" d="M127.9,113.8c0,0.3-0.2,0.5-0.5,0.5h-9.2c-0.3,0-0.5-0.2-0.5-0.5c0,0,0-2.9,0-3.6c-0.8,0-7.4,0-8.2,0
	c0,0.8,0,3.6,0,3.6c0,0.3-0.2,0.5-0.5,0.5h-9.2c-0.3,0-0.5-0.2-0.5-0.5c0,0,0-2.9,0-3.6c-0.4,0-2.3,0-4.1,0c0,0-3.3,0-4.1,0
	c0,0.8,0,3.6,0,3.6c0,0.3-0.2,0.5-0.5,0.5h-9.2c-0.3,0-0.5-0.2-0.5-0.5c0,0,0-2.9,0-3.6c-0.7,0-3.2,0-3.2,0c-2.1,0-4.5,0-5,0
	c0,0.8,0,6.5,0,7.3c0.1,0,1.6,0,4.1,0h73.6c2.5,0,4,0,4.1,0c0-0.8,0-6.5,0-7.3c-0.5,0-2.9,0-5,0c0,0-2.5,0-3.2,0c0,0.8,0,3.6,0,3.6
	c0,0.3-0.2,0.5-0.5,0.5h-9.2c-0.3,0-0.5-0.2-0.5-0.5c0,0,0-2.9,0-3.6c-0.8,0-4.1,0-4.1,0c-1.8,0-3.7,0-4.1,0
	C127.9,110.9,127.9,113.8,127.9,113.8"/>
<path fill="#E2231A" d="M99.3,85.3c-0.7,0-2.8,0-3.5,0c0,0.8,0,3.6,0,3.6c0,0.3-0.2,0.5-0.5,0.5h-4.4c-0.3,0-0.5-0.2-0.5-0.5
	c0,0,0-2.9,0-3.6c-0.8,0-7.1,0-7.9,0c0,0.8,0,3.6,0,3.6c0,0.3-0.2,0.5-0.5,0.5h-4.4c-0.3,0-0.5-0.2-0.5-0.5c0,0,0-2.9,0-3.6
	c-0.7,0-2.8,0-3.5,0c0,0.8,0,6.5,0,7.3c0.2,0,1.8,0,4.1,0h17.5c2.3,0,3.9,0,4.1,0C99.3,91.7,99.3,86.1,99.3,85.3"/>
<path fill="#E2231A" d="M153.6,85.3c-0.7,0-2.8,0-3.5,0c0,0.8,0,3.6,0,3.6c0,0.3-0.2,0.5-0.5,0.5h-4.4c-0.3,0-0.5-0.2-0.5-0.5
	c0,0,0-2.9,0-3.6c-0.8,0-7.1,0-7.9,0c0,0.8,0,3.6,0,3.6c0,0.3-0.2,0.5-0.5,0.5h-4.4c-0.3,0-0.5-0.2-0.5-0.5c0,0,0-2.9,0-3.6
	c-0.7,0-2.8,0-3.5,0c0,0.8,0,6.5,0,7.3c0.2,0,1.8,0,4.1,0h17.5c2.3,0,3.9,0,4.1,0C153.6,91.7,153.6,86.1,153.6,85.3"/>
<path fill="#E2231A" d="M126.9,64.6c-0.7,0-2.9,0-3.6,0c0,0.8,0,3.6,0,3.6c0,0.3-0.2,0.5-0.5,0.5h-4.6c-0.3,0-0.5-0.2-0.5-0.5
	c0,0,0-2.9,0-3.6c-0.8,0-7.4,0-8.2,0c0,0.8,0,3.6,0,3.6c0,0.3-0.2,0.5-0.5,0.5h-4.6c-0.3,0-0.5-0.2-0.5-0.5c0,0,0-2.9,0-3.6
	c-0.7,0-2.9,0-3.6,0c0,0.8,0,6.5,0,7.3c0.2,0,1.4,0,3.2,0h20.2c1.8,0,3,0,3.2,0C126.9,71,126.9,65.4,126.9,64.6"/>
<path fill="#E2231A" d="M72.7,142.3c0.9,0,29.2,0,30.1,0c0-1.1,0.1-2.1,0.3-3.2H76.8c-1.9,0-3.7,0-4.1,0
	C72.7,139.8,72.7,141.6,72.7,142.3"/>
<path fill="#E2231A" d="M123.2,73.8H104c0,5.1,0,36.6,0,38.4c0.7,0,3,0,3.7,0c0-0.8,0-3.7,0-3.7c0-0.3,0.2-0.5,0.5-0.5H119
	c0.3,0,0.5,0.2,0.5,0.5c0,0,0,2.9,0,3.7c0.7,0,3,0,3.7,0C123.2,111.4,123.2,80,123.2,73.8z M116,103.3h-4.8v-5.7
	c0-1.3,0.9-2.3,2.3-2.8l0.2,0l0.2,0c1.4,0.4,2.2,1.4,2.2,2.8V103.3z M116,85.4h-4.8v-4.8h4.8V85.4z"/>
<path fill="#E2231A" d="M78.2,94.5c0,3.4,0,12.8,0,13.6c0.7,0,4.2,0,4.2,0c0.3,0,0.5,0.2,0.5,0.5c0,0,0,2.9,0,3.7c0.8,0,5.4,0,6.2,0
	c0-0.8,0-3.7,0-3.7c0-0.3,0.2-0.5,0.5-0.5c0,0,4.3,0,5.1,0c0-0.8,0-10.2,0-13.6H78.2z M88.4,106.5H84v-5.1c0-1.2,0.8-2.1,2-2.5
	l0.2,0l0.2,0c1.3,0.4,2,1.3,2,2.5V106.5z"/>
<path fill="#E2231A" d="M132.5,94.5c0,3.4,0,12.8,0,13.6c0.7,0,5.1,0,5.1,0c0.3,0,0.5,0.2,0.5,0.5c0,0,0,2.9,0,3.7
	c0.8,0,5.4,0,6.2,0c0-0.8,0-3.7,0-3.7c0-0.3,0.2-0.5,0.5-0.5c0,0,3.5,0,4.3,0c0-0.8,0-10.2,0-13.6H132.5z M143.2,106.5h-4.4v-5.1
	c0-1.2,0.8-2.1,2-2.5l0.2,0l0.2,0c1.3,0.4,2,1.3,2,2.5V106.5z"/>
<path fill="#E2231A" d="M77.3,119.4c0,3.4,0,14.3,0,17.7h26.3c1.5-5.4,5.2-9.7,9.9-11.4c0.1,0,0.2,0,0.3,0c4.7,1.7,8.3,6,9.9,11.4
	h26.3c0-3.4,0-14.3,0-17.7H77.3z M96.7,132.4h-3v-8.5h3V132.4z M133.5,132.4h-3v-8.5h3V132.4z"/>
</svg>
